ISO-10303-21;
HEADER;
FILE_DESCRIPTION (( 'STEP AP203' ),
    '1' );
FILE_NAME ('Repeat Screw Switch.STEP',
    '2026-08-31T20:50:59',
    ( '' ),
    ( '' ),
    'SwSTEP 2.0',
    'SolidWorks 2026',
    '' );
FILE_SCHEMA (( 'CONFIG_CONTROL_DESIGN' ));
ENDSEC;

DATA;
#1 = EDGE_CURVE ( 'NONE', #592, #592, #131, .T. ) ;
#2 = ORIENTED_EDGE ( 'NONE', *, *, #1072, .F. ) ;
#3 = FACE_OUTER_BOUND ( 'NONE', #909, .T. ) ;
#4 = ADVANCED_FACE ( 'NONE', ( #53, #310 ), #739, .T. ) ;
#5 = CARTESIAN_POINT ( 'NONE',  ( -6.349999999999999645, -3.499999999999999556, -2.650000000000001243 ) ) ;
#6 = AXIS2_PLACEMENT_3D ( 'NONE', #183, #526, #262 ) ;
#7 = FACE_OUTER_BOUND ( 'NONE', #51, .T. ) ;
#8 =( LENGTH_UNIT ( ) NAMED_UNIT ( * ) SI_UNIT ( .MILLI., .METRE. ) );
#9 = ORIENTED_EDGE ( 'NONE', *, *, #835, .T. ) ;
#10 = CYLINDRICAL_SURFACE ( 'NONE', #832, 0.8000000000000012657 ) ;
#11 = DIRECTION ( 'NONE',  ( 0.000000000000000000, 0.000000000000000000, 1.000000000000000000 ) ) ;
#12 = ADVANCED_BREP_SHAPE_REPRESENTATION ( 'Repeat Screw Switch', ( #827, #418, #78 ), #1045 ) ;
#13 = FACE_OUTER_BOUND ( 'NONE', #989, .T. ) ;
#14 = CC_DESIGN_PERSON_AND_ORGANIZATION_ASSIGNMENT ( #1094, #557, ( #377 ) ) ;
#15 = ORIENTED_EDGE ( 'NONE', *, *, #1013, .F. ) ;
#16 = FACE_OUTER_BOUND ( 'NONE', #241, .T. ) ;
#17 = CYLINDRICAL_SURFACE ( 'NONE', #672, 0.8000000000000012657 ) ;
#18 = EDGE_CURVE ( 'NONE', #1037, #35, #470, .T. ) ;
#19 = EDGE_LOOP ( 'NONE', ( #521 ) ) ;
#20 = LINE ( 'NONE', #982, #193 ) ;
#21 = DIRECTION ( 'NONE',  ( -0.000000000000000000, 1.000000000000000000, 9.782275240470718273E-17 ) ) ;
#22 = DIRECTION ( 'NONE',  ( -1.000000000000000000, -0.000000000000000000, 2.891205793294678326E-16 ) ) ;
#23 = ORIENTED_EDGE ( 'NONE', *, *, #72, .F. ) ;
#24 = LINE ( 'NONE', #1049, #1056 ) ;
#25 = VECTOR ( 'NONE', #110, 1000.000000000000000 ) ;
#26 = ADVANCED_FACE ( 'NONE', ( #656, #652 ), #906, .T. ) ;
#27 =( NAMED_UNIT ( * ) PLANE_ANGLE_UNIT ( ) SI_UNIT ( $, .RADIAN. ) );
#28 = CARTESIAN_POINT ( 'NONE',  ( 1.499999999999996669, 0.000000000000000000, -6.350000000000003197 ) ) ;
#29 = ORIENTED_EDGE ( 'NONE', *, *, #707, .F. ) ;
#30 = DIRECTION ( 'NONE',  ( 0.000000000000000000, 1.000000000000000000, 0.000000000000000000 ) ) ;
#31 = DIRECTION ( 'NONE',  ( -1.000000000000000000, 0.000000000000000000, 1.365923996832131116E-16 ) ) ;
#32 = DIRECTION ( 'NONE',  ( 0.000000000000000000, 0.000000000000000000, 1.000000000000000000 ) ) ;
#33 = CIRCLE ( 'NONE', #329, 0.7499999999999997780 ) ;
#34 = ADVANCED_FACE ( 'NONE', ( #759 ), #398, .F. ) ;
#35 = VERTEX_POINT ( 'NONE', #747 ) ;
#36 = FACE_OUTER_BOUND ( 'NONE', #922, .T. ) ;
#37 = EDGE_LOOP ( 'NONE', ( #1088 ) ) ;
#38 = DIRECTION ( 'NONE',  ( 2.891205793294679312E-16, -0.000000000000000000, 1.000000000000000000 ) ) ;
#39 = DIRECTION ( 'NONE',  ( 0.000000000000000000, 0.000000000000000000, 1.000000000000000000 ) ) ;
#40 = CARTESIAN_POINT ( 'NONE',  ( -2.999999999999997780, 1.600000000000000089, -5.050000000000003375 ) ) ;
#41 = DIRECTION ( 'NONE',  ( 0.000000000000000000, 9.782275240470718273E-17, -1.000000000000000000 ) ) ;
#42 = VERTEX_POINT ( 'NONE', #249 ) ;
#43 = CC_DESIGN_PERSON_AND_ORGANIZATION_ASSIGNMENT ( #750, #1082, ( #531 ) ) ;
#44 = CARTESIAN_POINT ( 'NONE',  ( 1.499999999999997113, 0.000000000000000000, -2.650000000000001688 ) ) ;
#45 = CARTESIAN_POINT ( 'NONE',  ( -6.349999999999998757, 3.500000000000000000, 6.349999999999996980 ) ) ;
#46 = ORIENTED_EDGE ( 'NONE', *, *, #527, .T. ) ;
#47 = DIRECTION ( 'NONE',  ( 0.000000000000000000, -1.000000000000000000, -0.000000000000000000 ) ) ;
#48 = EDGE_CURVE ( 'NONE', #339, #454, #314, .T. ) ;
#49 = CARTESIAN_POINT ( 'NONE',  ( 4.408728476930471151E-16, 3.500000000000000000, 1.849999999999997424 ) ) ;
#50 = APPROVAL_ROLE ( '' ) ;
#51 = EDGE_LOOP ( 'NONE', ( #605, #1019 ) ) ;
#52 = DIRECTION ( 'NONE',  ( 2.891205793294678326E-16, -0.000000000000000000, 1.000000000000000000 ) ) ;
#53 = FACE_OUTER_BOUND ( 'NONE', #658, .T. ) ;
#54 = PLANE ( 'NONE',  #716 ) ;
#55 = FACE_BOUND ( 'NONE', #187, .T. ) ;
#56 = CARTESIAN_POINT ( 'NONE',  ( 5.300000000000001599, -1.750000000000000888, 6.349999999999997868 ) ) ;
#57 = FACE_OUTER_BOUND ( 'NONE', #1061, .T. ) ;
#58 = CIRCLE ( 'NONE', #436, 0.7999999999999999334 ) ;
#59 = PRODUCT_DEFINITION_FORMATION_WITH_SPECIFIED_SOURCE ( 'ANY', '', #900, .NOT_KNOWN. ) ;
#60 = EDGE_LOOP ( 'NONE', ( #446, #648, #573, #829 ) ) ;
#61 = DIRECTION ( 'NONE',  ( -0.000000000000000000, 1.000000000000000000, 9.782275240470718273E-17 ) ) ;
#62 = COORDINATED_UNIVERSAL_TIME_OFFSET ( 6, 0, .BEHIND. ) ;
#63 = VERTEX_POINT ( 'NONE', #917 ) ;
#64 = CARTESIAN_POINT ( 'NONE',  ( 0.000000000000000000, 1.599999999999999645, 3.349999999999996980 ) ) ;
#65 = ORIENTED_EDGE ( 'NONE', *, *, #802, .T. ) ;
#66 = CYLINDRICAL_SURFACE ( 'NONE', #615, 1.475000000000000533 ) ;
#67 = CARTESIAN_POINT ( 'NONE',  ( 5.300000000000001599, -0.1499999999999995226, 5.849999999999999645 ) ) ;
#68 = CALENDAR_DATE ( 2026, 31, 8 ) ;
#69 = EDGE_LOOP ( 'NONE', ( #785 ) ) ;
#70 = CARTESIAN_POINT ( 'NONE',  ( 0.000000000000000000, 1.699999999999999956, 5.349999999999996980 ) ) ;
#71 = EDGE_LOOP ( 'NONE', ( #236 ) ) ;
#72 = EDGE_CURVE ( 'NONE', #771, #974, #424, .T. ) ;
#73 = CARTESIAN_POINT ( 'NONE',  ( 0.000000000000000000, 1.700000000000000400, 1.849999999999997646 ) ) ;
#74 = FACE_OUTER_BOUND ( 'NONE', #504, .T. ) ;
#75 = PERSON_AND_ORGANIZATION ( #299, #699 ) ;
#76 = ORIENTED_EDGE ( 'NONE', *, *, #556, .T. ) ;
#77 = VERTEX_POINT ( 'NONE', #1085 ) ;
#78 = AXIS2_PLACEMENT_3D ( 'NONE', #126, #144, #475 ) ;
#79 = CARTESIAN_POINT ( 'NONE',  ( 3.699999999999999734, -1.750000000000000666, 4.249999999999998224 ) ) ;
#80 = ORIENTED_EDGE ( 'NONE', *, *, #406, .F. ) ;
#81 = DIRECTION ( 'NONE',  ( -0.000000000000000000, 1.000000000000000000, 0.000000000000000000 ) ) ;
#82 = VERTEX_POINT ( 'NONE', #64 ) ;
#83 = ORIENTED_EDGE ( 'NONE', *, *, #373, .T. ) ;
#84 = ADVANCED_FACE ( 'NONE', ( #260, #517 ), #254, .F. ) ;
#85 = CYLINDRICAL_SURFACE ( 'NONE', #238, 0.7999999999999999334 ) ;
#86 = CARTESIAN_POINT ( 'NONE',  ( 0.000000000000000000, 0.000000000000000000, 0.000000000000000000 ) ) ;
#87 = CARTESIAN_POINT ( 'NONE',  ( -1.499999999999997335, 0.000000000000000000, -2.650000000000001243 ) ) ;
#88 = ORIENTED_EDGE ( 'NONE', *, *, #871, .F. ) ;
#89 = CARTESIAN_POINT ( 'NONE',  ( 5.300000000000001599, -1.750000000000000666, 4.249999999999998224 ) ) ;
#90 = DIRECTION ( 'NONE',  ( 1.000000000000000000, 0.000000000000000000, 0.000000000000000000 ) ) ;
#91 = CARTESIAN_POINT ( 'NONE',  ( 3.699999999999999734, -1.750000000000000666, 4.249999999999998224 ) ) ;
#92 = CARTESIAN_POINT ( 'NONE',  ( -3.699377491420358291E-16, -5.585250998732675211E-32, -2.650000000000002132 ) ) ;
#93 = VECTOR ( 'NONE', #514, 1000.000000000000000 ) ;
#94 = DIRECTION ( 'NONE',  ( -1.365923996832131363E-16, -3.385000605292525869E-32, -1.000000000000000000 ) ) ;
#95 = EDGE_CURVE ( 'NONE', #154, #154, #370, .T. ) ;
#96 = LINE ( 'NONE', #434, #133 ) ;
#97 = VECTOR ( 'NONE', #964, 1000.000000000000000 ) ;
#98 = EDGE_LOOP ( 'NONE', ( #538 ) ) ;
#99 = DIRECTION ( 'NONE',  ( -0.000000000000000000, 1.000000000000000000, 9.782275240470718273E-17 ) ) ;
#100 = DIRECTION ( 'NONE',  ( 1.000000000000000000, 0.000000000000000000, 0.000000000000000000 ) ) ;
#101 = VECTOR ( 'NONE', #553, 1000.000000000000000 ) ;
#102 = DIRECTION ( 'NONE',  ( 0.000000000000000000, 0.000000000000000000, 1.000000000000000000 ) ) ;
#103 = ADVANCED_FACE ( 'NONE', ( #167, #862 ), #85, .F. ) ;
#104 = DIRECTION ( 'NONE',  ( -0.000000000000000000, 1.000000000000000000, 9.782275240470718273E-17 ) ) ;
#105 = EDGE_LOOP ( 'NONE', ( #839 ) ) ;
#106 = ADVANCED_FACE ( 'NONE', ( #512, #507 ), #10, .F. ) ;
#107 = CYLINDRICAL_SURFACE ( 'NONE', #565, 1.499999999999999556 ) ;
#108 = ORIENTED_EDGE ( 'NONE', *, *, #835, .F. ) ;
#109 = ADVANCED_FACE ( 'NONE', ( #3 ), #674, .F. ) ;
#110 = DIRECTION ( 'NONE',  ( -4.863710680308805693E-16, -0.000000000000000000, 1.000000000000000000 ) ) ;
#111 = CARTESIAN_POINT ( 'NONE',  ( -4.499999999999999112, -1.750000000000001998, -2.650000000000001688 ) ) ;
#112 = DIRECTION ( 'NONE',  ( 0.000000000000000000, -1.000000000000000000, -9.782275240470718273E-17 ) ) ;
#113 = EDGE_LOOP ( 'NONE', ( #713 ) ) ;
#114 = APPROVAL ( #647, 'UNSPECIFIED' ) ;
#115 = DIRECTION ( 'NONE',  ( 0.000000000000000000, 1.000000000000000000, 0.000000000000000000 ) ) ;
#116 = CARTESIAN_POINT ( 'NONE',  ( 4.408728476930471151E-16, 1.600000000000000755, 1.849999999999997424 ) ) ;
#117 = ADVANCED_FACE ( 'NONE', ( #867 ), #430, .F. ) ;
#118 = CIRCLE ( 'NONE', #629, 0.8000000000000012657 ) ;
#119 = DIRECTION ( 'NONE',  ( 0.000000000000000000, -1.239088197126290817E-16, 1.000000000000000000 ) ) ;
#120 = EDGE_LOOP ( 'NONE', ( #885, #1069 ) ) ;
#121 = CARTESIAN_POINT ( 'NONE',  ( 4.500000000000001776, 1.600000000000000089, -2.650000000000001243 ) ) ;
#122 = DIRECTION ( 'NONE',  ( 0.000000000000000000, 1.000000000000000000, 0.000000000000000000 ) ) ;
#123 = DIRECTION ( 'NONE',  ( 0.000000000000000000, -0.000000000000000000, 1.000000000000000000 ) ) ;
#124 = FACE_OUTER_BOUND ( 'NONE', #762, .T. ) ;
#125 = AXIS2_PLACEMENT_3D ( 'NONE', #40, #542, #365 ) ;
#126 = CARTESIAN_POINT ( 'NONE',  ( 0.000000000000000000, 0.000000000000000000, 0.000000000000000000 ) ) ;
#127 = DIRECTION ( 'NONE',  ( 1.000000000000000000, 0.000000000000000000, 2.023844055306271131E-15 ) ) ;
#128 = EDGE_LOOP ( 'NONE', ( #450, #164, #546, #441 ) ) ;
#129 = CC_DESIGN_PERSON_AND_ORGANIZATION_ASSIGNMENT ( #661, #742, ( #59 ) ) ;
#130 = DIRECTION ( 'NONE',  ( 0.000000000000000000, 0.000000000000000000, 1.000000000000000000 ) ) ;
#131 = CIRCLE ( 'NONE', #1004, 0.7499999999999997780 ) ;
#132 = EDGE_LOOP ( 'NONE', ( #898, #617, #554, #145 ) ) ;
#133 = VECTOR ( 'NONE', #22, 1000.000000000000000 ) ;
#134 = EDGE_CURVE ( 'NONE', #763, #763, #811, .T. ) ;
#135 = ORIENTED_EDGE ( 'NONE', *, *, #199, .F. ) ;
#136 = CARTESIAN_POINT ( 'NONE',  ( -5.299999999999998934, -1.750000000000001776, 4.249999999999998224 ) ) ;
#137 = CARTESIAN_POINT ( 'NONE',  ( 3.000000000000000000, -0.0009999999999999158867, -5.050000000000004263 ) ) ;
#138 = AXIS2_PLACEMENT_3D ( 'NONE', #261, #412, #333 ) ;
#139 = CALENDAR_DATE ( 2026, 31, 8 ) ;
#140 = ORIENTED_EDGE ( 'NONE', *, *, #295, .T. ) ;
#141 = PLANE ( 'NONE',  #877 ) ;
#142 = EDGE_LOOP ( 'NONE', ( #457, #190, #9, #474 ) ) ;
#143 = EDGE_CURVE ( 'NONE', #82, #82, #219, .T. ) ;
#144 = DIRECTION ( 'NONE',  ( 0.000000000000000000, 0.000000000000000000, 1.000000000000000000 ) ) ;
#145 = ORIENTED_EDGE ( 'NONE', *, *, #942, .F. ) ;
#146 = CLOSED_SHELL ( 'NONE', ( #670, #174, #791, #4, #937, #588, #420, #191, #816, #117, #564, #326, #303, #920, #737, #34, #381, #1084, #591, #473, #109, #392, #623, #696, #445, #810, #106, #103, #84 ) ) ;
#147 = ORIENTED_EDGE ( 'NONE', *, *, #1052, .F. ) ;
#148 = TOROIDAL_SURFACE ( 'NONE', #520, 3.400000000000000355, 0.1000000000000000472 ) ;
#149 = ORIENTED_EDGE ( 'NONE', *, *, #309, .T. ) ;
#150 = VERTEX_POINT ( 'NONE', #663 ) ;
#151 = CIRCLE ( 'NONE', #166, 0.8000000000000012657 ) ;
#152 = ORIENTED_EDGE ( 'NONE', *, *, #295, .F. ) ;
#153 = VERTEX_POINT ( 'NONE', #963 ) ;
#154 = VERTEX_POINT ( 'NONE', #654 ) ;
#155 = CIRCLE ( 'NONE', #468, 3.649999999999999911 ) ;
#156 = ORIENTED_EDGE ( 'NONE', *, *, #134, .F. ) ;
#157 = CARTESIAN_POINT ( 'NONE',  ( -5.299999999999998934, -1.750000000000001776, 4.249999999999998224 ) ) ;
#158 = EDGE_LOOP ( 'NONE', ( #664, #852, #861, #914 ) ) ;
#159 = UNCERTAINTY_MEASURE_WITH_UNIT (LENGTH_MEASURE( 1.000000000000000082E-05 ), #8, 'distance_accuracy_value', 'NONE');
#160 = LINE ( 'NONE', #317, #721 ) ;
#161 = VERTEX_POINT ( 'NONE', #87 ) ;
#162 = AXIS2_PLACEMENT_3D ( 'NONE', #1044, #684, #278 ) ;
#163 = CARTESIAN_POINT ( 'NONE',  ( 3.000000000000000000, 0.000000000000000000, -5.050000000000004263 ) ) ;
#164 = ORIENTED_EDGE ( 'NONE', *, *, #1093, .F. ) ;
#165 = ADVANCED_FACE ( 'NONE', ( #13, #352 ), #432, .F. ) ;
#166 = AXIS2_PLACEMENT_3D ( 'NONE', #755, #122, #726 ) ;
#167 = FACE_OUTER_BOUND ( 'NONE', #738, .T. ) ;
#168 = CYLINDRICAL_SURFACE ( 'NONE', #509, 3.649999999999999911 ) ;
#169 = VERTEX_POINT ( 'NONE', #492 ) ;
#170 = EDGE_LOOP ( 'NONE', ( #822 ) ) ;
#171 = CARTESIAN_POINT ( 'NONE',  ( 1.499999999999997335, 0.000000000000000000, -1.650000000000002576 ) ) ;
#172 = CARTESIAN_POINT ( 'NONE',  ( -5.299999999999998934, -0.1500000000000018818, 5.849999999999998757 ) ) ;
#173 = FACE_BOUND ( 'NONE', #423, .T. ) ;
#174 = ADVANCED_FACE ( 'NONE', ( #195, #7 ), #788, .F. ) ;
#175 = FACE_OUTER_BOUND ( 'NONE', #279, .T. ) ;
#176 = DIRECTION ( 'NONE',  ( 0.000000000000000000, 9.782275240470718273E-17, -1.000000000000000000 ) ) ;
#177 = EDGE_LOOP ( 'NONE', ( #471 ) ) ;
#178 = CARTESIAN_POINT ( 'NONE',  ( 6.350000000000001421, -3.500000000000000000, -2.650000000000003020 ) ) ;
#179 = EDGE_CURVE ( 'NONE', #691, #339, #597, .T. ) ;
#180 = DIRECTION ( 'NONE',  ( 2.478176394252582127E-16, 1.000000000000000000, 0.000000000000000000 ) ) ;
#181 = DIRECTION ( 'NONE',  ( -1.000000000000000000, 0.000000000000000000, 1.365923996832131116E-16 ) ) ;
#182 = AXIS2_PLACEMENT_3D ( 'NONE', #778, #600, #180 ) ;
#183 = CARTESIAN_POINT ( 'NONE',  ( 0.000000000000000000, -3.399999999999999467, 1.849999999999996758 ) ) ;
#184 = AXIS2_PLACEMENT_3D ( 'NONE', #92, #251, #181 ) ;
#185 = DIRECTION ( 'NONE',  ( -1.000000000000000000, -0.000000000000000000, -2.023844055306271131E-15 ) ) ;
#186 = AXIS2_PLACEMENT_3D ( 'NONE', #882, #204, #200 ) ;
#187 = EDGE_LOOP ( 'NONE', ( #478 ) ) ;
#188 = CARTESIAN_POINT ( 'NONE',  ( 9.311048578405686043E-16, -5.585250998732675211E-32, 6.349999999999997868 ) ) ;
#189 = DIRECTION ( 'NONE',  ( -4.863710680308805693E-16, -0.000000000000000000, 1.000000000000000000 ) ) ;
#190 = ORIENTED_EDGE ( 'NONE', *, *, #368, .T. ) ;
#191 = ADVANCED_FACE ( 'NONE', ( #798, #781 ), #17, .F. ) ;
#192 = LINE ( 'NONE', #539, #522 ) ;
#193 = VECTOR ( 'NONE', #31, 1000.000000000000000 ) ;
#194 = FACE_BOUND ( 'NONE', #1000, .T. ) ;
#195 = FACE_OUTER_BOUND ( 'NONE', #809, .T. ) ;
#196 = VERTEX_POINT ( 'NONE', #269 ) ;
#197 = DIRECTION ( 'NONE',  ( -0.000000000000000000, 1.000000000000000000, -0.000000000000000000 ) ) ;
#198 = ORIENTED_EDGE ( 'NONE', *, *, #530, .T. ) ;
#199 = EDGE_CURVE ( 'NONE', #161, #558, #444, .T. ) ;
#200 = DIRECTION ( 'NONE',  ( 4.863710680308805693E-16, 0.000000000000000000, -1.000000000000000000 ) ) ;
#201 = CARTESIAN_POINT ( 'NONE',  ( 4.500000000000003553, 1.600000000000000089, -6.349999999999997868 ) ) ;
#202 = AXIS2_PLACEMENT_3D ( 'NONE', #536, #21, #338 ) ;
#203 = EDGE_LOOP ( 'NONE', ( #764 ) ) ;
#204 = DIRECTION ( 'NONE',  ( 1.000000000000000000, -0.000000000000000000, 4.863710680308805693E-16 ) ) ;
#205 = LINE ( 'NONE', #807, #769 ) ;
#206 = AXIS2_PLACEMENT_3D ( 'NONE', #216, #820, #709 ) ;
#207 = CARTESIAN_POINT ( 'NONE',  ( -6.349999999999998757, -19.06566734836640720, 6.349999999999996980 ) ) ;
#208 = VERTEX_POINT ( 'NONE', #201 ) ;
#209 = CARTESIAN_POINT ( 'NONE',  ( -4.500000000000000000, 3.500000000000000000, 4.250000000000000000 ) ) ;
#210 = FACE_OUTER_BOUND ( 'NONE', #1068, .T. ) ;
#211 = APPROVAL ( #566, 'UNSPECIFIED' ) ;
#212 = LINE ( 'NONE', #45, #846 ) ;
#213 = CARTESIAN_POINT ( 'NONE',  ( 4.500000000000000888, -1.750000000000000888, 6.349999999999997868 ) ) ;
#214 = EDGE_LOOP ( 'NONE', ( #363 ) ) ;
#215 = CARTESIAN_POINT ( 'NONE',  ( -2.999999999999997780, 0.000000000000000000, -5.050000000000003375 ) ) ;
#216 = CARTESIAN_POINT ( 'NONE',  ( 0.000000000000000000, -3.099999999999998312, 1.849999999999996758 ) ) ;
#217 = FACE_OUTER_BOUND ( 'NONE', #800, .T. ) ;
#218 = DIRECTION ( 'NONE',  ( 0.000000000000000000, -1.000000000000000000, 0.000000000000000000 ) ) ;
#219 = CIRCLE ( 'NONE', #318, 1.499999999999999778 ) ;
#220 = EDGE_LOOP ( 'NONE', ( #244 ) ) ;
#221 = CYLINDRICAL_SURFACE ( 'NONE', #489, 0.7499999999999997780 ) ;
#222 = DIRECTION ( 'NONE',  ( -1.000000000000000000, -2.478176394252582127E-16, 1.445602896647338424E-16 ) ) ;
#223 = APPROVAL_PERSON_ORGANIZATION ( #1054, #211, #496 ) ;
#224 = PERSON_AND_ORGANIZATION_ROLE ( 'creator' ) ;
#225 = ORIENTED_EDGE ( 'NONE', *, *, #857, .T. ) ;
#226 = CARTESIAN_POINT ( 'NONE',  ( 6.349999999999999645, -3.499999999999999556, -2.650000000000001243 ) ) ;
#227 = EDGE_CURVE ( 'NONE', #243, #243, #796, .T. ) ;
#228 = DIRECTION ( 'NONE',  ( -0.000000000000000000, 1.000000000000000000, 9.782275240470718273E-17 ) ) ;
#229 = CONICAL_SURFACE ( 'NONE', #390, 1.199999999999999512, 0.7853981633974468357 ) ;
#230 = FACE_OUTER_BOUND ( 'NONE', #515, .T. ) ;
#231 = COORDINATED_UNIVERSAL_TIME_OFFSET ( 6, 0, .BEHIND. ) ;
#232 = ORIENTED_EDGE ( 'NONE', *, *, #410, .F. ) ;
#233 = LINE ( 'NONE', #369, #894 ) ;
#234 = EDGE_CURVE ( 'NONE', #758, #965, #1035, .T. ) ;
#235 = CARTESIAN_POINT ( 'NONE',  ( -5.299999999999998934, -3.350000000000001865, 5.849999999999998757 ) ) ;
#236 = ORIENTED_EDGE ( 'NONE', *, *, #745, .F. ) ;
#237 = VERTEX_POINT ( 'NONE', #936 ) ;
#238 = AXIS2_PLACEMENT_3D ( 'NONE', #341, #595, #90 ) ;
#239 = ORIENTED_EDGE ( 'NONE', *, *, #775, .T. ) ;
#240 = CIRCLE ( 'NONE', #1011, 0.8000000000000008216 ) ;
#241 = EDGE_LOOP ( 'NONE', ( #533 ) ) ;
#242 = APPLICATION_CONTEXT ( 'configuration controlled 3d designs of mechanical parts and assemblies' ) ;
#243 = VERTEX_POINT ( 'NONE', #502 ) ;
#244 = ORIENTED_EDGE ( 'NONE', *, *, #997, .F. ) ;
#245 = FACE_OUTER_BOUND ( 'NONE', #132, .T. ) ;
#246 = ORIENTED_EDGE ( 'NONE', *, *, #606, .F. ) ;
#247 = CARTESIAN_POINT ( 'NONE',  ( 4.408728476930471151E-16, -3.500000000000000000, 3.324999999999997957 ) ) ;
#248 = AXIS2_PLACEMENT_3D ( 'NONE', #359, #813, #123 ) ;
#249 = CARTESIAN_POINT ( 'NONE',  ( -4.500000000000000000, 1.600000000000000089, -2.650000000000001243 ) ) ;
#250 = EDGE_CURVE ( 'NONE', #847, #42, #952, .T. ) ;
#251 = DIRECTION ( 'NONE',  ( -1.365923996832131116E-16, -3.385000605292525869E-32, -1.000000000000000000 ) ) ;
#252 = VERTEX_POINT ( 'NONE', #604 ) ;
#253 = CARTESIAN_POINT ( 'NONE',  ( 4.408728476930471151E-16, 1.600000000000000089, 3.324999999999997957 ) ) ;
#254 = CYLINDRICAL_SURFACE ( 'NONE', #715, 0.8000000000000012657 ) ;
#255 = CARTESIAN_POINT ( 'NONE',  ( 4.408728476930471151E-16, 1.600000000000000089, 1.849999999999997424 ) ) ;
#256 = ORIENTED_EDGE ( 'NONE', *, *, #234, .T. ) ;
#257 = VECTOR ( 'NONE', #628, 1000.000000000000000 ) ;
#258 = FACE_BOUND ( 'NONE', #113, .T. ) ;
#259 = ADVANCED_FACE ( 'NONE', ( #175 ), #958, .F. ) ;
#260 = FACE_OUTER_BOUND ( 'NONE', #98, .T. ) ;
#261 = CARTESIAN_POINT ( 'NONE',  ( 0.000000000000000000, 0.000000000000000000, 0.000000000000000000 ) ) ;
#262 = DIRECTION ( 'NONE',  ( 0.000000000000000000, -9.782275240470718273E-17, 1.000000000000000000 ) ) ;
#263 = EDGE_LOOP ( 'NONE', ( #665, #1098 ) ) ;
#264 = VECTOR ( 'NONE', #983, 1000.000000000000000 ) ;
#265 = DIRECTION ( 'NONE',  ( -1.000000000000000000, 0.000000000000000000, 1.172110456741085581E-16 ) ) ;
#266 = DIRECTION ( 'NONE',  ( 6.484947573745073600E-16, 0.000000000000000000, -1.000000000000000000 ) ) ;
#267 = DIRECTION ( 'NONE',  ( 1.000000000000000000, -0.000000000000000000, 0.000000000000000000 ) ) ;
#268 = DIRECTION ( 'NONE',  ( 0.000000000000000000, -9.782275240470718273E-17, 1.000000000000000000 ) ) ;
#269 = CARTESIAN_POINT ( 'NONE',  ( -2.999999999999997780, 0.000000000000000000, -4.300000000000003375 ) ) ;
#270 = ORIENTED_EDGE ( 'NONE', *, *, #1042, .F. ) ;
#271 = CARTESIAN_POINT ( 'NONE',  ( 3.700000000000000622, -3.350000000000002309, 2.649999999999997247 ) ) ;
#272 = CLOSED_SHELL ( 'NONE', ( #165, #26, #916, #580, #712, #274, #482, #259, #685, #284 ) ) ;
#273 = FACE_OUTER_BOUND ( 'NONE', #1095, .T. ) ;
#274 = ADVANCED_FACE ( 'NONE', ( #695, #876 ), #440, .T. ) ;
#275 = PRODUCT_DEFINITION_SHAPE ( 'NONE', 'NONE',  #531 ) ;
#276 = EDGE_LOOP ( 'NONE', ( #998, #1090 ) ) ;
#277 = DIRECTION ( 'NONE',  ( 0.000000000000000000, -1.275531967630004999E-16, 1.000000000000000000 ) ) ;
#278 = DIRECTION ( 'NONE',  ( 0.000000000000000000, 0.000000000000000000, 1.000000000000000000 ) ) ;
#279 = EDGE_LOOP ( 'NONE', ( #941 ) ) ;
#280 = CIRCLE ( 'NONE', #767, 0.7999999999999999334 ) ;
#281 = CARTESIAN_POINT ( 'NONE',  ( 5.300000000000001599, -1.750000000000000666, 4.249999999999998224 ) ) ;
#282 = CARTESIAN_POINT ( 'NONE',  ( 0.000000000000000000, 1.600000000000000311, 1.849999999999997202 ) ) ;
#283 = CARTESIAN_POINT ( 'NONE',  ( 6.349999999999999645, 3.500000000000000000, -2.650000000000001243 ) ) ;
#284 = ADVANCED_FACE ( 'NONE', ( #273, #869 ), #107, .T. ) ;
#285 = DIRECTION ( 'NONE',  ( 1.000000000000000000, 0.000000000000000000, 0.000000000000000000 ) ) ;
#286 = EDGE_LOOP ( 'NONE', ( #686 ) ) ;
#287 = CARTESIAN_POINT ( 'NONE',  ( -6.349999999999998757, -3.499999999999999556, 6.349999999999996980 ) ) ;
#288 = DIRECTION ( 'NONE',  ( -0.000000000000000000, 1.000000000000000000, 9.782275240470718273E-17 ) ) ;
#289 = CARTESIAN_POINT ( 'NONE',  ( 1.499999999999996891, 0.000000000000000000, -6.350000000000003197 ) ) ;
#290 = EDGE_CURVE ( 'NONE', #153, #42, #24, .T. ) ;
#291 = LINE ( 'NONE', #1073, #264 ) ;
#292 = VECTOR ( 'NONE', #38, 1000.000000000000000 ) ;
#293 = DIRECTION ( 'NONE',  ( -1.000000000000000000, 0.000000000000000000, 0.000000000000000000 ) ) ;
#294 = CARTESIAN_POINT ( 'NONE',  ( 0.000000000000000000, 2.099999999999999645, 1.849999999999997202 ) ) ;
#295 = EDGE_CURVE ( 'NONE', #927, #691, #212, .T. ) ;
#296 = DIRECTION ( 'NONE',  ( 0.000000000000000000, -1.239088197126290817E-16, 1.000000000000000000 ) ) ;
#297 = FACE_OUTER_BOUND ( 'NONE', #60, .T. ) ;
#298 = CIRCLE ( 'NONE', #932, 3.650000000000000355 ) ;
#299 = PERSON ( 'UNSPECIFIED', 'UNSPECIFIED', 'UNSPECIFIED', ('UNSPECIFIED'), ('UNSPECIFIED'), ('UNSPECIFIED') ) ;
#300 = ORIENTED_EDGE ( 'NONE', *, *, #95, .F. ) ;
#301 = DIRECTION ( 'NONE',  ( -0.000000000000000000, 1.000000000000000000, 9.782275240470718273E-17 ) ) ;
#302 = DIRECTION ( 'NONE',  ( 1.000000000000000000, 0.000000000000000000, 0.000000000000000000 ) ) ;
#303 = ADVANCED_FACE ( 'NONE', ( #907, #36 ), #221, .F. ) ;
#304 = ORIENTED_EDGE ( 'NONE', *, *, #968, .F. ) ;
#305 = LINE ( 'NONE', #226, #292 ) ;
#306 = CARTESIAN_POINT ( 'NONE',  ( 3.700000000000000622, -3.350000000000002309, 5.849999999999999645 ) ) ;
#307 = AXIS2_PLACEMENT_3D ( 'NONE', #178, #880, #687 ) ;
#308 = ORIENTED_EDGE ( 'NONE', *, *, #1042, .T. ) ;
#309 = EDGE_CURVE ( 'NONE', #594, #454, #291, .T. ) ;
#310 = FACE_BOUND ( 'NONE', #330, .T. ) ;
#311 = AXIS2_PLACEMENT_3D ( 'NONE', #255, #343, #1099 ) ;
#312 = ORIENTED_EDGE ( 'NONE', *, *, #356, .T. ) ;
#313 = CARTESIAN_POINT ( 'NONE',  ( 0.000000000000000000, 3.250000000000000888, 3.349999999999997868 ) ) ;
#314 = LINE ( 'NONE', #500, #921 ) ;
#315 = DATE_AND_TIME ( #413, #995 ) ;
#316 = ORIENTED_EDGE ( 'NONE', *, *, #997, .T. ) ;
#317 = CARTESIAN_POINT ( 'NONE',  ( 1.499999999999996891, 1.600000000000000089, -6.350000000000003197 ) ) ;
#318 = AXIS2_PLACEMENT_3D ( 'NONE', #972, #620, #1031 ) ;
#319 = CC_DESIGN_PERSON_AND_ORGANIZATION_ASSIGNMENT ( #75, #224, ( #59 ) ) ;
#320 = VERTEX_POINT ( 'NONE', #711 ) ;
#321 = VECTOR ( 'NONE', #728, 1000.000000000000000 ) ;
#322 = COORDINATED_UNIVERSAL_TIME_OFFSET ( 6, 0, .BEHIND. ) ;
#323 = ORIENTED_EDGE ( 'NONE', *, *, #727, .F. ) ;
#324 = CARTESIAN_POINT ( 'NONE',  ( 4.500000000000000000, -3.500000000000000000, 5.050000000000001599 ) ) ;
#325 = ORIENTED_EDGE ( 'NONE', *, *, #387, .F. ) ;
#326 = ADVANCED_FACE ( 'NONE', ( #124, #455 ), #1059, .F. ) ;
#327 = DIRECTION ( 'NONE',  ( 1.000000000000000000, 0.000000000000000000, -1.172110456741085828E-16 ) ) ;
#328 = DIRECTION ( 'NONE',  ( -0.000000000000000000, 1.000000000000000000, -0.000000000000000000 ) ) ;
#329 = AXIS2_PLACEMENT_3D ( 'NONE', #163, #962, #760 ) ;
#330 = EDGE_LOOP ( 'NONE', ( #491 ) ) ;
#331 = CARTESIAN_POINT ( 'NONE',  ( 4.408728476930471151E-16, 1.600000000000000755, 5.499999999999998224 ) ) ;
#332 = CARTESIAN_POINT ( 'NONE',  ( 3.000000000000000000, 1.600000000000000089, -5.050000000000004263 ) ) ;
#333 = DIRECTION ( 'NONE',  ( 0.000000000000000000, -0.000000000000000000, 1.000000000000000000 ) ) ;
#334 = EDGE_CURVE ( 'NONE', #1026, #1026, #155, .T. ) ;
#335 = ORIENTED_EDGE ( 'NONE', *, *, #290, .F. ) ;
#336 = AXIS2_PLACEMENT_3D ( 'NONE', #111, #94, #608 ) ;
#337 = DIRECTION ( 'NONE',  ( 1.172110456741085828E-16, -0.000000000000000000, 1.000000000000000000 ) ) ;
#338 = DIRECTION ( 'NONE',  ( 0.000000000000000000, -1.239088197126290570E-16, 1.000000000000000000 ) ) ;
#339 = VERTEX_POINT ( 'NONE', #643 ) ;
#340 = CIRCLE ( 'NONE', #1030, 1.475000000000000533 ) ;
#341 = CARTESIAN_POINT ( 'NONE',  ( -4.499999999999999112, -1.750000000000001998, -6.350000000000003197 ) ) ;
#342 = LINE ( 'NONE', #682, #503 ) ;
#343 = DIRECTION ( 'NONE',  ( 0.000000000000000000, 1.000000000000000000, 0.000000000000000000 ) ) ;
#344 = DIRECTION ( 'NONE',  ( -1.172110456741085581E-16, -0.000000000000000000, -1.000000000000000000 ) ) ;
#345 = CARTESIAN_POINT ( 'NONE',  ( 1.499999999999996891, 1.600000000000000089, -6.350000000000003197 ) ) ;
#346 = ORIENTED_EDGE ( 'NONE', *, *, #309, .F. ) ;
#347 = CARTESIAN_POINT ( 'NONE',  ( 6.350000000000002309, 3.500000000000000000, 6.349999999999996980 ) ) ;
#348 = DATE_AND_TIME ( #396, #1046 ) ;
#349 = DIRECTION ( 'NONE',  ( -0.000000000000000000, 1.000000000000000000, -0.000000000000000000 ) ) ;
#350 = CARTESIAN_POINT ( 'NONE',  ( -6.349999999999999645, 3.500000000000000000, -2.650000000000001243 ) ) ;
#351 = ORIENTED_EDGE ( 'NONE', *, *, #250, .F. ) ;
#352 = FACE_BOUND ( 'NONE', #170, .T. ) ;
#353 = PRODUCT_RELATED_PRODUCT_CATEGORY ( 'detail', '', ( #900 ) ) ;
#354 = CARTESIAN_POINT ( 'NONE',  ( 0.000000000000000000, 1.700000000000000400, 1.849999999999997202 ) ) ;
#355 = ORIENTED_EDGE ( 'NONE', *, *, #649, .F. ) ;
#356 = EDGE_CURVE ( 'NONE', #752, #752, #824, .T. ) ;
#357 = AXIS2_PLACEMENT_3D ( 'NONE', #646, #382, #749 ) ;
#358 = DIRECTION ( 'NONE',  ( 0.000000000000000000, 1.000000000000000000, 0.000000000000000000 ) ) ;
#359 = CARTESIAN_POINT ( 'NONE',  ( 0.000000000000000000, 1.600000000000000089, 0.000000000000000000 ) ) ;
#360 = DIRECTION ( 'NONE',  ( -2.891205793294679312E-16, -0.000000000000000000, -1.000000000000000000 ) ) ;
#361 = LOCAL_TIME ( 15, 50, 59.00000000000000000, #913 ) ;
#362 = DIRECTION ( 'NONE',  ( -1.000000000000000000, -0.000000000000000000, -2.023844055306271131E-15 ) ) ;
#363 = ORIENTED_EDGE ( 'NONE', *, *, #618, .T. ) ;
#364 = AXIS2_PLACEMENT_3D ( 'NONE', #86, #81, #944 ) ;
#365 = DIRECTION ( 'NONE',  ( 0.000000000000000000, 0.000000000000000000, 1.000000000000000000 ) ) ;
#366 = PERSON_AND_ORGANIZATION ( #299, #699 ) ;
#367 = EDGE_LOOP ( 'NONE', ( #970 ) ) ;
#368 = EDGE_CURVE ( 'NONE', #960, #729, #634, .T. ) ;
#369 = CARTESIAN_POINT ( 'NONE',  ( 1.499999999999997335, 1.600000000000000089, -1.650000000000002576 ) ) ;
#370 = CIRCLE ( 'NONE', #476, 3.400000000000000355 ) ;
#371 = EDGE_CURVE ( 'NONE', #1003, #1003, #298, .T. ) ;
#372 = ORIENTED_EDGE ( 'NONE', *, *, #72, .T. ) ;
#373 = EDGE_CURVE ( 'NONE', #668, #668, #442, .T. ) ;
#374 = PLANE ( 'NONE',  #1089 ) ;
#375 = CARTESIAN_POINT ( 'NONE',  ( 4.499999999999996447, 1.600000000000000089, 5.350000000000002309 ) ) ;
#376 = AXIS2_PLACEMENT_3D ( 'NONE', #1001, #218, #735 ) ;
#377 = SECURITY_CLASSIFICATION ( '', '', #1016 ) ;
#378 = ORIENTED_EDGE ( 'NONE', *, *, #530, .F. ) ;
#379 = CARTESIAN_POINT ( 'NONE',  ( -1.499999999999997780, 1.600000000000000089, -5.350000000000003197 ) ) ;
#380 = AXIS2_PLACEMENT_3D ( 'NONE', #459, #228, #814 ) ;
#381 = ADVANCED_FACE ( 'NONE', ( #1053 ), #624, .F. ) ;
#382 = DIRECTION ( 'NONE',  ( -0.000000000000000000, -0.000000000000000000, 1.000000000000000000 ) ) ;
#383 = ORIENTED_EDGE ( 'NONE', *, *, #988, .T. ) ;
#384 = CARTESIAN_POINT ( 'NONE',  ( 6.349999999999999645, -3.499999999999999556, -2.650000000000001243 ) ) ;
#385 = DIRECTION ( 'NONE',  ( 0.000000000000000000, 0.000000000000000000, 1.000000000000000000 ) ) ;
#386 = LINE ( 'NONE', #828, #625 ) ;
#387 = EDGE_CURVE ( 'NONE', #935, #161, #205, .T. ) ;
#388 = APPROVAL_DATE_TIME ( #929, #599 ) ;
#389 = ORIENTED_EDGE ( 'NONE', *, *, #649, .T. ) ;
#390 = AXIS2_PLACEMENT_3D ( 'NONE', #675, #495, #957 ) ;
#391 = DIRECTION ( 'NONE',  ( 1.000000000000000000, 0.000000000000000000, -2.891205793294678326E-16 ) ) ;
#392 = ADVANCED_FACE ( 'NONE', ( #297, #194 ), #447, .T. ) ;
#393 = DIRECTION ( 'NONE',  ( 0.000000000000000000, 0.000000000000000000, 1.000000000000000000 ) ) ;
#394 = DIRECTION ( 'NONE',  ( -1.365923996832131363E-16, -3.385000605292525869E-32, -1.000000000000000000 ) ) ;
#395 = AXIS2_PLACEMENT_3D ( 'NONE', #213, #130, #285 ) ;
#396 = CALENDAR_DATE ( 2026, 31, 8 ) ;
#397 = VERTEX_POINT ( 'NONE', #744 ) ;
#398 = PLANE ( 'NONE',  #408 ) ;
#399 = DIRECTION ( 'NONE',  ( 0.000000000000000000, -9.782275240470718273E-17, 1.000000000000000000 ) ) ;
#400 = AXIS2_PLACEMENT_3D ( 'NONE', #701, #1048, #39 ) ;
#401 = DATE_AND_TIME ( #477, #1064 ) ;
#402 = ORIENTED_EDGE ( 'NONE', *, *, #911, .F. ) ;
#403 = CARTESIAN_POINT ( 'NONE',  ( 4.408728476930471151E-16, 3.500000000000000000, -1.800000000000002487 ) ) ;
#404 = ORIENTED_EDGE ( 'NONE', *, *, #707, .T. ) ;
#405 = ORIENTED_EDGE ( 'NONE', *, *, #1006, .F. ) ;
#406 = EDGE_CURVE ( 'NONE', #1078, #339, #443, .T. ) ;
#407 = VERTEX_POINT ( 'NONE', #56 ) ;
#408 = AXIS2_PLACEMENT_3D ( 'NONE', #1091, #327, #560 ) ;
#409 = EDGE_LOOP ( 'NONE', ( #108, #428, #23, #1075 ) ) ;
#410 = EDGE_CURVE ( 'NONE', #729, #974, #20, .T. ) ;
#411 = DIRECTION ( 'NONE',  ( -0.000000000000000000, 1.000000000000000000, 9.782275240470718273E-17 ) ) ;
#412 = DIRECTION ( 'NONE',  ( -0.000000000000000000, 1.000000000000000000, 0.000000000000000000 ) ) ;
#413 = CALENDAR_DATE ( 2026, 31, 8 ) ;
#414 = ORIENTED_EDGE ( 'NONE', *, *, #1, .T. ) ;
#415 = EDGE_LOOP ( 'NONE', ( #985, #627, #152, #1018 ) ) ;
#416 = APPROVAL_PERSON_ORGANIZATION ( #1009, #599, #50 ) ;
#417 = ORIENTED_EDGE ( 'NONE', *, *, #902, .F. ) ;
#418 = MANIFOLD_SOLID_BREP ( 'Boss-Extrude6', #146 ) ;
#419 = FACE_BOUND ( 'NONE', #563, .T. ) ;
#420 = ADVANCED_FACE ( 'NONE', ( #541, #210 ), #549, .F. ) ;
#421 = CARTESIAN_POINT ( 'NONE',  ( 3.699999999999999734, -1.750000000000000888, -2.650000000000002576 ) ) ;
#422 = VECTOR ( 'NONE', #891, 1000.000000000000000 ) ;
#423 = EDGE_LOOP ( 'NONE', ( #232, #991, #893, #978 ) ) ;
#424 = LINE ( 'NONE', #171, #657 ) ;
#425 = DIRECTION ( 'NONE',  ( 0.000000000000000000, 0.000000000000000000, 1.000000000000000000 ) ) ;
#426 = DIRECTION ( 'NONE',  ( 0.000000000000000000, 1.000000000000000000, 0.000000000000000000 ) ) ;
#427 = EDGE_CURVE ( 'NONE', #960, #320, #886, .T. ) ;
#428 = ORIENTED_EDGE ( 'NONE', *, *, #410, .T. ) ;
#429 = AXIS2_PLACEMENT_3D ( 'NONE', #967, #689, #1039 ) ;
#430 = PLANE ( 'NONE',  #182 ) ;
#431 = CARTESIAN_POINT ( 'NONE',  ( -4.499999999999999112, -1.750000000000001998, 6.349999999999997868 ) ) ;
#432 = PLANE ( 'NONE',  #959 ) ;
#433 = VERTEX_POINT ( 'NONE', #1036 ) ;
#434 = CARTESIAN_POINT ( 'NONE',  ( -4.499999999999998224, 1.600000000000000089, -6.350000000000002309 ) ) ;
#435 = EDGE_LOOP ( 'NONE', ( #551 ) ) ;
#436 = AXIS2_PLACEMENT_3D ( 'NONE', #910, #547, #472 ) ;
#437 = LOCAL_TIME ( 15, 50, 59.00000000000000000, #322 ) ;
#438 = DIRECTION ( 'NONE',  ( 0.000000000000000000, -1.275531967630004999E-16, 1.000000000000000000 ) ) ;
#439 = DIRECTION ( 'NONE',  ( -9.637352644315598941E-17, 0.000000000000000000, -1.000000000000000000 ) ) ;
#440 = SPHERICAL_SURFACE ( 'NONE', #429, 3.469296192032748305 ) ;
#441 = ORIENTED_EDGE ( 'NONE', *, *, #603, .T. ) ;
#442 = CIRCLE ( 'NONE', #125, 0.7499999999999997780 ) ;
#443 = LINE ( 'NONE', #630, #529 ) ;
#444 = LINE ( 'NONE', #613, #460 ) ;
#445 = ADVANCED_FACE ( 'NONE', ( #710, #797, #966 ), #374, .F. ) ;
#446 = ORIENTED_EDGE ( 'NONE', *, *, #765, .F. ) ;
#447 = PLANE ( 'NONE',  #248 ) ;
#448 = DIRECTION ( 'NONE',  ( 0.000000000000000000, 0.000000000000000000, 1.000000000000000000 ) ) ;
#449 = CC_DESIGN_PERSON_AND_ORGANIZATION_ASSIGNMENT ( #366, #631, ( #900 ) ) ;
#450 = ORIENTED_EDGE ( 'NONE', *, *, #782, .T. ) ;
#451 = VECTOR ( 'NONE', #467, 1000.000000000000000 ) ;
#452 = DIRECTION ( 'NONE',  ( -0.000000000000000000, 1.000000000000000000, 0.000000000000000000 ) ) ;
#453 = CARTESIAN_POINT ( 'NONE',  ( -3.699377491420358291E-16, 0.000000000000000000, -2.650000000000002132 ) ) ;
#454 = VERTEX_POINT ( 'NONE', #525 ) ;
#455 = FACE_OUTER_BOUND ( 'NONE', #698, .T. ) ;
#456 = FACE_OUTER_BOUND ( 'NONE', #276, .T. ) ;
#457 = ORIENTED_EDGE ( 'NONE', *, *, #826, .F. ) ;
#458 = CYLINDRICAL_SURFACE ( 'NONE', #840, 3.499999999999999556 ) ;
#459 = CARTESIAN_POINT ( 'NONE',  ( 0.000000000000000000, 3.250000000000000888, 1.849999999999997424 ) ) ;
#460 = VECTOR ( 'NONE', #344, 1000.000000000000000 ) ;
#461 = CARTESIAN_POINT ( 'NONE',  ( 0.000000000000000000, 1.600000000000000089, -2.650000000000001243 ) ) ;
#462 = EDGE_LOOP ( 'NONE', ( #2 ) ) ;
#463 = VECTOR ( 'NONE', #185, 1000.000000000000000 ) ;
#464 = EDGE_CURVE ( 'NONE', #237, #237, #817, .T. ) ;
#465 = FACE_OUTER_BOUND ( 'NONE', #1014, .T. ) ;
#466 = ORIENTED_EDGE ( 'NONE', *, *, #1093, .T. ) ;
#467 = DIRECTION ( 'NONE',  ( -0.000000000000000000, -1.000000000000000000, -0.000000000000000000 ) ) ;
#468 = AXIS2_PLACEMENT_3D ( 'NONE', #49, #550, #903 ) ;
#469 = DATE_AND_TIME ( #139, #361 ) ;
#470 =( BOUNDED_CURVE ( )  B_SPLINE_CURVE ( 3, ( #157, #235, #494, #853 ),
 .UNSPECIFIED., .F., .T. ) 
 B_SPLINE_CURVE_WITH_KNOTS ( ( 4, 4 ),
 ( 1.570796326794896558, 4.712388980384689674 ),
 .UNSPECIFIED. ) 
 CURVE ( )  GEOMETRIC_REPRESENTATION_ITEM ( )  RATIONAL_B_SPLINE_CURVE ( ( 1.000000000000000000, 0.3333333333333333703, 0.3333333333333333703, 1.000000000000000000 ) ) 
 REPRESENTATION_ITEM ( '' )  );
#471 = ORIENTED_EDGE ( 'NONE', *, *, #638, .F. ) ;
#472 = DIRECTION ( 'NONE',  ( 0.000000000000000000, 0.000000000000000000, -1.000000000000000000 ) ) ;
#473 = ADVANCED_FACE ( 'NONE', ( #619 ), #612, .F. ) ;
#474 = ORIENTED_EDGE ( 'NONE', *, *, #603, .F. ) ;
#475 = DIRECTION ( 'NONE',  ( 1.000000000000000000, 0.000000000000000000, 0.000000000000000000 ) ) ;
#476 = AXIS2_PLACEMENT_3D ( 'NONE', #943, #99, #438 ) ;
#477 = CALENDAR_DATE ( 2026, 31, 8 ) ;
#478 = ORIENTED_EDGE ( 'NONE', *, *, #334, .F. ) ;
#479 = CARTESIAN_POINT ( 'NONE',  ( 0.000000000000000000, 1.600000000000000089, 0.000000000000000000 ) ) ;
#480 = FACE_OUTER_BOUND ( 'NONE', #286, .T. ) ;
#481 = AXIS2_PLACEMENT_3D ( 'NONE', #697, #197, #888 ) ;
#482 = ADVANCED_FACE ( 'NONE', ( #57 ), #953, .F. ) ;
#483 = EDGE_LOOP ( 'NONE', ( #88 ) ) ;
#484 = VERTEX_POINT ( 'NONE', #247 ) ;
#485 = CARTESIAN_POINT ( 'NONE',  ( -6.349999999999998757, 3.500000000000000000, 6.349999999999996980 ) ) ;
#486 = ORIENTED_EDGE ( 'NONE', *, *, #1080, .T. ) ;
#487 = EDGE_CURVE ( 'NONE', #632, #847, #96, .T. ) ;
#488 = CARTESIAN_POINT ( 'NONE',  ( -1.499999999999998002, 0.000000000000000000, -6.350000000000003197 ) ) ;
#489 = AXIS2_PLACEMENT_3D ( 'NONE', #733, #912, #895 ) ;
#490 = PLANE ( 'NONE',  #376 ) ;
#491 = ORIENTED_EDGE ( 'NONE', *, *, #618, .F. ) ;
#492 = CARTESIAN_POINT ( 'NONE',  ( -3.699999999999998845, -1.750000000000001998, 6.349999999999997868 ) ) ;
#493 = ORIENTED_EDGE ( 'NONE', *, *, #373, .F. ) ;
#494 = CARTESIAN_POINT ( 'NONE',  ( -3.699999999999999289, -3.350000000000002309, 5.849999999999998757 ) ) ;
#495 = DIRECTION ( 'NONE',  ( -0.000000000000000000, 1.000000000000000000, 9.782275240470718273E-17 ) ) ;
#496 = APPROVAL_ROLE ( '' ) ;
#497 = EDGE_LOOP ( 'NONE', ( #890 ) ) ;
#498 = VECTOR ( 'NONE', #360, 1000.000000000000000 ) ;
#499 = EDGE_CURVE ( 'NONE', #208, #662, #784, .T. ) ;
#500 = CARTESIAN_POINT ( 'NONE',  ( -6.349999999999999645, 3.500000000000000000, -2.650000000000001243 ) ) ;
#501 = PLANE ( 'NONE',  #364 ) ;
#502 = CARTESIAN_POINT ( 'NONE',  ( 0.000000000000000000, 1.999999999999999556, 5.349999999999997868 ) ) ;
#503 = VECTOR ( 'NONE', #266, 1000.000000000000000 ) ;
#504 = EDGE_LOOP ( 'NONE', ( #135, #562, #724, #930 ) ) ;
#505 = APPROVAL_PERSON_ORGANIZATION ( #1074, #114, #836 ) ;
#506 = CC_DESIGN_DATE_AND_TIME_ASSIGNMENT ( #469, #736, ( #377 ) ) ;
#507 = FACE_OUTER_BOUND ( 'NONE', #843, .T. ) ;
#508 = DIRECTION ( 'NONE',  ( -0.000000000000000000, -1.000000000000000000, -0.000000000000000000 ) ) ;
#509 = AXIS2_PLACEMENT_3D ( 'NONE', #607, #508, #584 ) ;
#510 = VERTEX_POINT ( 'NONE', #70 ) ;
#511 = ORIENTED_EDGE ( 'NONE', *, *, #950, .F. ) ;
#512 = FACE_OUTER_BOUND ( 'NONE', #578, .T. ) ;
#513 = CARTESIAN_POINT ( 'NONE',  ( 5.300000000000001599, -3.350000000000002309, 2.649999999999997247 ) ) ;
#514 = DIRECTION ( 'NONE',  ( -1.000000000000000000, 0.000000000000000000, 0.000000000000000000 ) ) ;
#515 = EDGE_LOOP ( 'NONE', ( #931, #766 ) ) ;
#516 = AXIS2_PLACEMENT_3D ( 'NONE', #479, #583, #1005 ) ;
#517 = FACE_OUTER_BOUND ( 'NONE', #567, .T. ) ;
#518 = CARTESIAN_POINT ( 'NONE',  ( -6.349999999999999645, -3.499999999999999556, -2.650000000000001243 ) ) ;
#519 = CARTESIAN_POINT ( 'NONE',  ( 0.000000000000000000, 1.600000000000000311, 0.3499999999999972577 ) ) ;
#520 = AXIS2_PLACEMENT_3D ( 'NONE', #841, #61, #399 ) ;
#521 = ORIENTED_EDGE ( 'NONE', *, *, #371, .F. ) ;
#522 = VECTOR ( 'NONE', #30, 1000.000000000000000 ) ;
#523 = PLANE ( 'NONE',  #307 ) ;
#524 = CC_DESIGN_APPROVAL ( #211, ( #531 ) ) ;
#525 = CARTESIAN_POINT ( 'NONE',  ( -6.349999999999999645, 3.500000000000000000, -2.650000000000001243 ) ) ;
#526 = DIRECTION ( 'NONE',  ( -0.000000000000000000, 1.000000000000000000, 9.782275240470718273E-17 ) ) ;
#527 = EDGE_CURVE ( 'NONE', #77, #77, #609, .T. ) ;
#528 = EDGE_LOOP ( 'NONE', ( #372, #486, #15, #466 ) ) ;
#529 = VECTOR ( 'NONE', #115, 1000.000000000000000 ) ;
#530 = EDGE_CURVE ( 'NONE', #454, #927, #884, .T. ) ;
#531 = PRODUCT_DEFINITION ( 'UNKNOWN', '', #59, #865 ) ;
#532 = CARTESIAN_POINT ( 'NONE',  ( 0.000000000000000000, 3.250000000000000888, 1.849999999999997424 ) ) ;
#533 = ORIENTED_EDGE ( 'NONE', *, *, #95, .T. ) ;
#534 = EDGE_CURVE ( 'NONE', #558, #63, #1007, .T. ) ;
#535 = CARTESIAN_POINT ( 'NONE',  ( -4.500000000000003553, 0.000000000000000000, 5.349999999999996980 ) ) ;
#536 = CARTESIAN_POINT ( 'NONE',  ( 0.000000000000000000, 2.000000000000000000, 1.849999999999997202 ) ) ;
#537 = DIRECTION ( 'NONE',  ( 0.000000000000000000, -1.000000000000000000, -9.782275240470718273E-17 ) ) ;
#538 = ORIENTED_EDGE ( 'NONE', *, *, #569, .T. ) ;
#539 = CARTESIAN_POINT ( 'NONE',  ( 6.350000000000002309, -19.06566734836640720, 6.349999999999996980 ) ) ;
#540 = CIRCLE ( 'NONE', #928, 0.7999999999999999334 ) ;
#541 = FACE_OUTER_BOUND ( 'NONE', #120, .T. ) ;
#542 = DIRECTION ( 'NONE',  ( 0.000000000000000000, 1.000000000000000000, 0.000000000000000000 ) ) ;
#543 =( BOUNDED_CURVE ( )  B_SPLINE_CURVE ( 3, ( #722, #306, #901, #642 ),
 .UNSPECIFIED., .F., .F. ) 
 B_SPLINE_CURVE_WITH_KNOTS ( ( 4, 4 ),
 ( 1.570796326794896558, 4.712388980384689674 ),
 .UNSPECIFIED. ) 
 CURVE ( )  GEOMETRIC_REPRESENTATION_ITEM ( )  RATIONAL_B_SPLINE_CURVE ( ( 1.000000000000000000, 0.3333333333333333703, 0.3333333333333333703, 1.000000000000000000 ) ) 
 REPRESENTATION_ITEM ( '' )  );
#544 = CC_DESIGN_APPROVAL ( #599, ( #59 ) ) ;
#545 = FACE_OUTER_BOUND ( 'NONE', #37, .T. ) ;
#546 = ORIENTED_EDGE ( 'NONE', *, *, #499, .F. ) ;
#547 = DIRECTION ( 'NONE',  ( 0.000000000000000000, 1.000000000000000000, -0.000000000000000000 ) ) ;
#548 = CARTESIAN_POINT ( 'NONE',  ( -1.499999999999997780, 1.600000000000000089, -6.350000000000003197 ) ) ;
#549 = CYLINDRICAL_SURFACE ( 'NONE', #400, 0.8000000000000003775 ) ;
#550 = DIRECTION ( 'NONE',  ( 0.000000000000000000, 1.000000000000000000, -0.000000000000000000 ) ) ;
#551 = ORIENTED_EDGE ( 'NONE', *, *, #745, .T. ) ;
#552 = DIRECTION ( 'NONE',  ( 0.000000000000000000, 0.000000000000000000, 1.000000000000000000 ) ) ;
#553 = DIRECTION ( 'NONE',  ( 6.484947573745073600E-16, 0.000000000000000000, -1.000000000000000000 ) ) ;
#554 = ORIENTED_EDGE ( 'NONE', *, *, #179, .F. ) ;
#555 = DIRECTION ( 'NONE',  ( 0.000000000000000000, 0.000000000000000000, -1.000000000000000000 ) ) ;
#556 = EDGE_CURVE ( 'NONE', #847, #63, #386, .T. ) ;
#557 = PERSON_AND_ORGANIZATION_ROLE ( 'classification_officer' ) ;
#558 = VERTEX_POINT ( 'NONE', #488 ) ;
#559 = FACE_BOUND ( 'NONE', #203, .T. ) ;
#560 = DIRECTION ( 'NONE',  ( -1.172110456741085828E-16, 0.000000000000000000, -1.000000000000000000 ) ) ;
#561 = FACE_OUTER_BOUND ( 'NONE', #497, .T. ) ;
#562 = ORIENTED_EDGE ( 'NONE', *, *, #727, .T. ) ;
#563 = EDGE_LOOP ( 'NONE', ( #46 ) ) ;
#564 = ADVANCED_FACE ( 'NONE', ( #245 ), #54, .F. ) ;
#565 = AXIS2_PLACEMENT_3D ( 'NONE', #532, #887, #448 ) ;
#566 = APPROVAL_STATUS ( 'not_yet_approved' ) ;
#567 = EDGE_LOOP ( 'NONE', ( #246, #1010 ) ) ;
#568 = VERTEX_POINT ( 'NONE', #925 ) ;
#569 = EDGE_CURVE ( 'NONE', #586, #586, #240, .T. ) ;
#570 = AXIS2_PLACEMENT_3D ( 'NONE', #878, #104, #789 ) ;
#571 = EDGE_LOOP ( 'NONE', ( #335, #323, #325, #1041 ) ) ;
#572 = VECTOR ( 'NONE', #640, 1000.000000000000000 ) ;
#573 = ORIENTED_EDGE ( 'NONE', *, *, #487, .T. ) ;
#574 = DIRECTION ( 'NONE',  ( -0.000000000000000000, -1.000000000000000000, -0.000000000000000000 ) ) ;
#575 = CARTESIAN_POINT ( 'NONE',  ( -1.499999999999997558, 1.600000000000000089, -2.650000000000001243 ) ) ;
#576 = ORIENTED_EDGE ( 'NONE', *, *, #179, .T. ) ;
#577 = DATE_TIME_ROLE ( 'creation_date' ) ;
#578 = EDGE_LOOP ( 'NONE', ( #65 ) ) ;
#579 = CARTESIAN_POINT ( 'NONE',  ( -4.500000000000000000, 3.500000000000000000, 3.450000000000000178 ) ) ;
#580 = ADVANCED_FACE ( 'NONE', ( #741, #561 ), #148, .T. ) ;
#581 = EDGE_LOOP ( 'NONE', ( #872 ) ) ;
#582 =( BOUNDED_CURVE ( )  B_SPLINE_CURVE ( 3, ( #688, #513, #271, #1038 ),
 .UNSPECIFIED., .F., .T. ) 
 B_SPLINE_CURVE_WITH_KNOTS ( ( 4, 4 ),
 ( 1.570796326794896558, 4.712388980384689674 ),
 .UNSPECIFIED. ) 
 CURVE ( )  GEOMETRIC_REPRESENTATION_ITEM ( )  RATIONAL_B_SPLINE_CURVE ( ( 1.000000000000000000, 0.3333333333333333703, 0.3333333333333333703, 1.000000000000000000 ) ) 
 REPRESENTATION_ITEM ( '' )  );
#583 = DIRECTION ( 'NONE',  ( -0.000000000000000000, 1.000000000000000000, 0.000000000000000000 ) ) ;
#584 = DIRECTION ( 'NONE',  ( 0.000000000000000000, 0.000000000000000000, -1.000000000000000000 ) ) ;
#585 = ORIENTED_EDGE ( 'NONE', *, *, #680, .F. ) ;
#586 = VERTEX_POINT ( 'NONE', #421 ) ;
#587 = EDGE_LOOP ( 'NONE', ( #404, #751, #383, #256 ) ) ;
#588 = ADVANCED_FACE ( 'NONE', ( #480, #748 ), #66, .F. ) ;
#589 = DIRECTION ( 'NONE',  ( 1.000000000000000000, 0.000000000000000000, 0.000000000000000000 ) ) ;
#590 = FACE_BOUND ( 'NONE', #462, .T. ) ;
#591 = ADVANCED_FACE ( 'NONE', ( #863, #768 ), #1025, .F. ) ;
#592 = VERTEX_POINT ( 'NONE', #1096 ) ;
#593 = CIRCLE ( 'NONE', #206, 1.499999999999999334 ) ;
#594 = VERTEX_POINT ( 'NONE', #5 ) ;
#595 = DIRECTION ( 'NONE',  ( -0.000000000000000000, -0.000000000000000000, 1.000000000000000000 ) ) ;
#596 = FACE_OUTER_BOUND ( 'NONE', #19, .T. ) ;
#597 = LINE ( 'NONE', #283, #498 ) ;
#598 = ORIENTED_EDGE ( 'NONE', *, *, #227, .F. ) ;
#599 = APPROVAL ( #761, 'UNSPECIFIED' ) ;
#600 = DIRECTION ( 'NONE',  ( 1.000000000000000000, -2.478176394252582127E-16, -1.445602896647338424E-16 ) ) ;
#601 = CARTESIAN_POINT ( 'NONE',  ( 4.500000000000000000, 3.500000000000000000, 4.250000000000000000 ) ) ;
#602 = CARTESIAN_POINT ( 'NONE',  ( -6.349999999999999645, -3.499999999999999556, -2.650000000000001243 ) ) ;
#603 = EDGE_CURVE ( 'NONE', #208, #833, #939, .T. ) ;
#604 = CARTESIAN_POINT ( 'NONE',  ( 5.300000000000001599, -1.750000000000000666, 4.249999999999998224 ) ) ;
#605 = ORIENTED_EDGE ( 'NONE', *, *, #889, .T. ) ;
#606 = EDGE_CURVE ( 'NONE', #252, #837, #582, .T. ) ;
#607 = CARTESIAN_POINT ( 'NONE',  ( 4.408728476930471151E-16, 3.501000000000000334, 1.849999999999997424 ) ) ;
#608 = DIRECTION ( 'NONE',  ( -1.000000000000000000, 0.000000000000000000, 0.000000000000000000 ) ) ;
#609 = CIRCLE ( 'NONE', #570, 1.199999999999999512 ) ;
#610 = CARTESIAN_POINT ( 'NONE',  ( 6.350000000000002309, -3.499999999999999556, 6.349999999999996980 ) ) ;
#611 = ORIENTED_EDGE ( 'NONE', *, *, #556, .F. ) ;
#612 = PLANE ( 'NONE',  #186 ) ;
#613 = CARTESIAN_POINT ( 'NONE',  ( -1.499999999999997780, 0.000000000000000000, -5.350000000000003197 ) ) ;
#614 = APPLICATION_CONTEXT ( 'configuration controlled 3d designs of mechanical parts and assemblies' ) ;
#615 = AXIS2_PLACEMENT_3D ( 'NONE', #780, #328, #11 ) ;
#616 = LINE ( 'NONE', #207, #945 ) ;
#617 = ORIENTED_EDGE ( 'NONE', *, *, #406, .T. ) ;
#618 = EDGE_CURVE ( 'NONE', #673, #673, #915, .T. ) ;
#619 = FACE_OUTER_BOUND ( 'NONE', #1047, .T. ) ;
#620 = DIRECTION ( 'NONE',  ( -0.000000000000000000, 1.000000000000000000, 9.782275240470718273E-17 ) ) ;
#621 = CARTESIAN_POINT ( 'NONE',  ( 0.000000000000000000, 3.250000000000000888, 1.849999999999997424 ) ) ;
#622 = ORIENTED_EDGE ( 'NONE', *, *, #487, .F. ) ;
#623 = ADVANCED_FACE ( 'NONE', ( #590, #74 ), #501, .F. ) ;
#624 = PLANE ( 'NONE',  #746 ) ;
#625 = VECTOR ( 'NONE', #1077, 1000.000000000000000 ) ;
#626 = MECHANICAL_CONTEXT ( 'NONE', #242, 'mechanical' ) ;
#627 = ORIENTED_EDGE ( 'NONE', *, *, #942, .T. ) ;
#628 = DIRECTION ( 'NONE',  ( -1.172110456741085581E-16, -0.000000000000000000, -1.000000000000000000 ) ) ;
#629 = AXIS2_PLACEMENT_3D ( 'NONE', #601, #358, #881 ) ;
#630 = CARTESIAN_POINT ( 'NONE',  ( 6.349999999999999645, -19.06566734836640720, -2.650000000000001243 ) ) ;
#631 = PERSON_AND_ORGANIZATION_ROLE ( 'design_owner' ) ;
#632 = VERTEX_POINT ( 'NONE', #683 ) ;
#633 = DIRECTION ( 'NONE',  ( -0.000000000000000000, -1.000000000000000000, -0.000000000000000000 ) ) ;
#634 = LINE ( 'NONE', #803, #422 ) ;
#635 = ORIENTED_EDGE ( 'NONE', *, *, #387, .T. ) ;
#636 = CARTESIAN_POINT ( 'NONE',  ( -3.699999999999998845, -1.750000000000001776, 4.249999999999998224 ) ) ;
#637 = PLANE ( 'NONE',  #801 ) ;
#638 = EDGE_CURVE ( 'NONE', #1012, #1012, #33, .T. ) ;
#639 = FACE_BOUND ( 'NONE', #483, .T. ) ;
#640 = DIRECTION ( 'NONE',  ( 0.000000000000000000, 1.000000000000000000, 0.000000000000000000 ) ) ;
#641 = CARTESIAN_POINT ( 'NONE',  ( -3.699999999999999289, -3.350000000000001865, 2.649999999999998579 ) ) ;
#642 = CARTESIAN_POINT ( 'NONE',  ( 5.300000000000001599, -1.750000000000000666, 4.249999999999998224 ) ) ;
#643 = CARTESIAN_POINT ( 'NONE',  ( 6.349999999999999645, 3.500000000000000000, -2.650000000000001243 ) ) ;
#644 = CIRCLE ( 'NONE', #395, 0.8000000000000012657 ) ;
#645 = CARTESIAN_POINT ( 'NONE',  ( 4.500000000000000888, -1.750000000000000888, -2.650000000000002576 ) ) ;
#646 = CARTESIAN_POINT ( 'NONE',  ( -4.499999999999999112, -1.750000000000001998, -6.350000000000003197 ) ) ;
#647 = APPROVAL_STATUS ( 'not_yet_approved' ) ;
#648 = ORIENTED_EDGE ( 'NONE', *, *, #1006, .T. ) ;
#649 = EDGE_CURVE ( 'NONE', #169, #169, #280, .T. ) ;
#650 = VECTOR ( 'NONE', #267, 1000.000000000000000 ) ;
#651 = CARTESIAN_POINT ( 'NONE',  ( 3.699999999999999289, -0.1499999999999995226, 2.649999999999997247 ) ) ;
#652 = FACE_OUTER_BOUND ( 'NONE', #69, .T. ) ;
#653 = EDGE_LOOP ( 'NONE', ( #198, #140, #576, #850 ) ) ;
#654 = CARTESIAN_POINT ( 'NONE',  ( 0.000000000000000000, 2.099999999999999645, 5.249999999999997335 ) ) ;
#655 =( BOUNDED_CURVE ( )  B_SPLINE_CURVE ( 3, ( #79, #651, #838, #89 ),
 .UNSPECIFIED., .F., .F. ) 
 B_SPLINE_CURVE_WITH_KNOTS ( ( 4, 4 ),
 ( 4.712388980384689674, 7.853981633974482790 ),
 .UNSPECIFIED. ) 
 CURVE ( )  GEOMETRIC_REPRESENTATION_ITEM ( )  RATIONAL_B_SPLINE_CURVE ( ( 1.000000000000000000, 0.3333333333333333703, 0.3333333333333333703, 1.000000000000000000 ) ) 
 REPRESENTATION_ITEM ( '' )  );
#656 = FACE_OUTER_BOUND ( 'NONE', #71, .T. ) ;
#657 = VECTOR ( 'NONE', #337, 1000.000000000000000 ) ;
#658 = EDGE_LOOP ( 'NONE', ( #1097 ) ) ;
#659 = ORIENTED_EDGE ( 'NONE', *, *, #199, .T. ) ;
#660 = CARTESIAN_POINT ( 'NONE',  ( -3.699999999999999289, -0.1500000000000021316, 5.849999999999998757 ) ) ;
#661 = PERSON_AND_ORGANIZATION ( #299, #699 ) ;
#662 = VERTEX_POINT ( 'NONE', #773 ) ;
#663 = CARTESIAN_POINT ( 'NONE',  ( 0.000000000000000000, 2.099999999999999201, 4.699999999999998401 ) ) ;
#664 = ORIENTED_EDGE ( 'NONE', *, *, #427, .F. ) ;
#665 = ORIENTED_EDGE ( 'NONE', *, *, #606, .T. ) ;
#666 = FACE_OUTER_BOUND ( 'NONE', #756, .T. ) ;
#667 = ORIENTED_EDGE ( 'NONE', *, *, #896, .F. ) ;
#668 = VERTEX_POINT ( 'NONE', #1023 ) ;
#669 = DIRECTION ( 'NONE',  ( 0.000000000000000000, 1.000000000000000000, 0.000000000000000000 ) ) ;
#670 = ADVANCED_FACE ( 'NONE', ( #1092, #596 ), #168, .F. ) ;
#671 = CARTESIAN_POINT ( 'NONE',  ( 4.500000000000003553, 1.600000000000000089, -6.349999999999996980 ) ) ;
#672 = AXIS2_PLACEMENT_3D ( 'NONE', #703, #349, #102 ) ;
#673 = VERTEX_POINT ( 'NONE', #253 ) ;
#674 = PLANE ( 'NONE',  #692 ) ;
#675 = CARTESIAN_POINT ( 'NONE',  ( 0.000000000000000000, -3.399999999999999023, 1.849999999999996758 ) ) ;
#676 = CARTESIAN_POINT ( 'NONE',  ( -6.349999999999998757, -3.499999999999999556, 6.349999999999996980 ) ) ;
#677 = CIRCLE ( 'NONE', #1062, 0.7499999999999997780 ) ;
#678 = ORIENTED_EDGE ( 'NONE', *, *, #356, .F. ) ;
#679 = FACE_OUTER_BOUND ( 'NONE', #587, .T. ) ;
#680 = EDGE_CURVE ( 'NONE', #594, #1078, #1034, .T. ) ;
#681 = CARTESIAN_POINT ( 'NONE',  ( 4.500000000000000888, -1.750000000000000888, -6.350000000000003197 ) ) ;
#682 = CARTESIAN_POINT ( 'NONE',  ( 4.499999999999996447, 0.000000000000000000, 5.350000000000002309 ) ) ;
#683 = CARTESIAN_POINT ( 'NONE',  ( -1.499999999999998002, 1.600000000000000089, -6.350000000000003197 ) ) ;
#684 = DIRECTION ( 'NONE',  ( -0.000000000000000000, 1.000000000000000000, -0.000000000000000000 ) ) ;
#685 = ADVANCED_FACE ( 'NONE', ( #860, #419 ), #229, .T. ) ;
#686 = ORIENTED_EDGE ( 'NONE', *, *, #1027, .T. ) ;
#687 = DIRECTION ( 'NONE',  ( 0.000000000000000000, -0.000000000000000000, 1.000000000000000000 ) ) ;
#688 = CARTESIAN_POINT ( 'NONE',  ( 5.300000000000001599, -1.750000000000000666, 4.249999999999998224 ) ) ;
#689 = DIRECTION ( 'NONE',  ( -1.000000000000000000, 0.000000000000000000, 0.000000000000000000 ) ) ;
#690 = LINE ( 'NONE', #453, #984 ) ;
#691 = VERTEX_POINT ( 'NONE', #347 ) ;
#692 = AXIS2_PLACEMENT_3D ( 'NONE', #1028, #265, #948 ) ;
#693 = LINE ( 'NONE', #535, #25 ) ;
#694 = DIRECTION ( 'NONE',  ( -1.000000000000000000, 0.000000000000000000, 0.000000000000000000 ) ) ;
#695 = FACE_OUTER_BOUND ( 'NONE', #933, .T. ) ;
#696 = ADVANCED_FACE ( 'NONE', ( #1029, #951, #173, #854, #666 ), #1020, .T. ) ;
#697 = CARTESIAN_POINT ( 'NONE',  ( 4.500000000000000000, -3.500000000000000000, 4.250000000000000000 ) ) ;
#698 = EDGE_LOOP ( 'NONE', ( #743 ) ) ;
#699 = ORGANIZATION ( 'UNSPECIFIED', 'UNSPECIFIED', '' ) ;
#700 = CARTESIAN_POINT ( 'NONE',  ( 3.699999999999999734, -1.750000000000000666, 4.249999999999998224 ) ) ;
#701 = CARTESIAN_POINT ( 'NONE',  ( -4.500000000000000000, -3.500000000000000000, 4.250000000000000000 ) ) ;
#702 = SHAPE_DEFINITION_REPRESENTATION ( #275, #12 ) ;
#703 = CARTESIAN_POINT ( 'NONE',  ( 4.500000000000000000, -3.500000000000000000, 4.250000000000000000 ) ) ;
#704 =( BOUNDED_CURVE ( )  B_SPLINE_CURVE ( 3, ( #731, #641, #1071, #993 ),
 .UNSPECIFIED., .F., .T. ) 
 B_SPLINE_CURVE_WITH_KNOTS ( ( 4, 4 ),
 ( 1.570796326794896558, 4.712388980384689674 ),
 .UNSPECIFIED. ) 
 CURVE ( )  GEOMETRIC_REPRESENTATION_ITEM ( )  RATIONAL_B_SPLINE_CURVE ( ( 1.000000000000000000, 0.3333333333333333703, 0.3333333333333333703, 1.000000000000000000 ) ) 
 REPRESENTATION_ITEM ( '' )  );
#705 = AXIS2_PLACEMENT_3D ( 'NONE', #1040, #883, #127 ) ;
#706 = CARTESIAN_POINT ( 'NONE',  ( 4.500000000000001776, 0.000000000000000000, -2.650000000000001243 ) ) ;
#707 = EDGE_CURVE ( 'NONE', #965, #594, #875, .T. ) ;
#708 = EDGE_LOOP ( 'NONE', ( #304, #1081 ) ) ;
#709 = DIRECTION ( 'NONE',  ( 0.000000000000000000, 0.000000000000000000, 1.000000000000000000 ) ) ;
#710 = FACE_BOUND ( 'NONE', #581, .T. ) ;
#711 = CARTESIAN_POINT ( 'NONE',  ( 1.499999999999997113, 1.600000000000000089, -2.650000000000000799 ) ) ;
#712 = ADVANCED_FACE ( 'NONE', ( #787, #16 ), #805, .F. ) ;
#713 = ORIENTED_EDGE ( 'NONE', *, *, #896, .T. ) ;
#714 = CARTESIAN_POINT ( 'NONE',  ( -5.299999999999998934, -1.750000000000001776, 4.249999999999998224 ) ) ;
#715 = AXIS2_PLACEMENT_3D ( 'NONE', #681, #873, #589 ) ;
#716 = AXIS2_PLACEMENT_3D ( 'NONE', #754, #222, #734 ) ;
#717 =( NAMED_UNIT ( * ) SI_UNIT ( $, .STERADIAN. ) SOLID_ANGLE_UNIT ( ) );
#718 = DIRECTION ( 'NONE',  ( -0.000000000000000000, 1.000000000000000000, 9.782275240470718273E-17 ) ) ;
#719 = ORIENTED_EDGE ( 'NONE', *, *, #134, .T. ) ;
#720 = LINE ( 'NONE', #379, #257 ) ;
#721 = VECTOR ( 'NONE', #574, 1000.000000000000000 ) ;
#722 = CARTESIAN_POINT ( 'NONE',  ( 3.699999999999999734, -1.750000000000000666, 4.249999999999998224 ) ) ;
#723 = DIRECTION ( 'NONE',  ( -1.000000000000000000, 0.000000000000000000, -6.484947573745073600E-16 ) ) ;
#724 = ORIENTED_EDGE ( 'NONE', *, *, #857, .F. ) ;
#725 = DIRECTION ( 'NONE',  ( 1.172110456741085828E-16, -0.000000000000000000, 1.000000000000000000 ) ) ;
#726 = DIRECTION ( 'NONE',  ( 0.000000000000000000, 0.000000000000000000, 1.000000000000000000 ) ) ;
#727 = EDGE_CURVE ( 'NONE', #161, #153, #690, .T. ) ;
#728 = DIRECTION ( 'NONE',  ( -1.000000000000000000, -0.000000000000000000, 2.891205793294678326E-16 ) ) ;
#729 = VERTEX_POINT ( 'NONE', #706 ) ;
#730 = LINE ( 'NONE', #1070, #572 ) ;
#731 = CARTESIAN_POINT ( 'NONE',  ( -3.699999999999998845, -1.750000000000001776, 4.249999999999998224 ) ) ;
#732 = CARTESIAN_POINT ( 'NONE',  ( -5.299999999999998934, -1.750000000000001776, 4.249999999999998224 ) ) ;
#733 = CARTESIAN_POINT ( 'NONE',  ( -2.999999999999997780, -0.0009999999999999158867, -5.050000000000003375 ) ) ;
#734 = DIRECTION ( 'NONE',  ( 2.478176394252582127E-16, -1.000000000000000000, 0.000000000000000000 ) ) ;
#735 = DIRECTION ( 'NONE',  ( 0.000000000000000000, -0.000000000000000000, -1.000000000000000000 ) ) ;
#736 = DATE_TIME_ROLE ( 'classification_date' ) ;
#737 = ADVANCED_FACE ( 'NONE', ( #794 ), #799, .F. ) ;
#738 = EDGE_LOOP ( 'NONE', ( #719 ) ) ;
#739 = PLANE ( 'NONE',  #516 ) ;
#740 = AXIS2_PLACEMENT_3D ( 'NONE', #294, #1058, #899 ) ;
#741 = FACE_OUTER_BOUND ( 'NONE', #954, .T. ) ;
#742 = PERSON_AND_ORGANIZATION_ROLE ( 'design_supplier' ) ;
#743 = ORIENTED_EDGE ( 'NONE', *, *, #638, .T. ) ;
#744 = CARTESIAN_POINT ( 'NONE',  ( 4.500000000000000000, 3.500000000000000000, 5.050000000000001599 ) ) ;
#745 = EDGE_CURVE ( 'NONE', #510, #510, #904, .T. ) ;
#746 = AXIS2_PLACEMENT_3D ( 'NONE', #375, #723, #976 ) ;
#747 = CARTESIAN_POINT ( 'NONE',  ( -3.699999999999998845, -1.750000000000001776, 4.249999999999998224 ) ) ;
#748 = FACE_OUTER_BOUND ( 'NONE', #214, .T. ) ;
#749 = DIRECTION ( 'NONE',  ( 1.000000000000000000, 0.000000000000000000, 0.000000000000000000 ) ) ;
#750 = PERSON_AND_ORGANIZATION ( #299, #699 ) ;
#751 = ORIENTED_EDGE ( 'NONE', *, *, #680, .T. ) ;
#752 = VERTEX_POINT ( 'NONE', #313 ) ;
#753 = ORIENTED_EDGE ( 'NONE', *, *, #950, .T. ) ;
#754 = CARTESIAN_POINT ( 'NONE',  ( 6.349999999999999645, 3.500000000000000000, -2.650000000000003020 ) ) ;
#755 = CARTESIAN_POINT ( 'NONE',  ( 4.500000000000000000, -3.500000000000000000, 4.250000000000000000 ) ) ;
#756 = EDGE_LOOP ( 'NONE', ( #585, #149, #795, #80 ) ) ;
#757 = VERTEX_POINT ( 'NONE', #324 ) ;
#758 = VERTEX_POINT ( 'NONE', #610 ) ;
#759 = FACE_OUTER_BOUND ( 'NONE', #528, .T. ) ;
#760 = DIRECTION ( 'NONE',  ( 0.000000000000000000, 0.000000000000000000, 1.000000000000000000 ) ) ;
#761 = APPROVAL_STATUS ( 'not_yet_approved' ) ;
#762 = EDGE_LOOP ( 'NONE', ( #414 ) ) ;
#763 = VERTEX_POINT ( 'NONE', #770 ) ;
#764 = ORIENTED_EDGE ( 'NONE', *, *, #1, .F. ) ;
#765 = EDGE_CURVE ( 'NONE', #935, #42, #1050, .T. ) ;
#766 = ORIENTED_EDGE ( 'NONE', *, *, #18, .F. ) ;
#767 = AXIS2_PLACEMENT_3D ( 'NONE', #431, #425, #100 ) ;
#768 = FACE_OUTER_BOUND ( 'NONE', #409, .T. ) ;
#769 = VECTOR ( 'NONE', #1066, 1000.000000000000000 ) ;
#770 = CARTESIAN_POINT ( 'NONE',  ( -5.299999999999998934, -1.750000000000001998, -2.650000000000001688 ) ) ;
#771 = VERTEX_POINT ( 'NONE', #28 ) ;
#772 = CARTESIAN_POINT ( 'NONE',  ( 4.500000000000000888, -1.750000000000000888, -6.350000000000003197 ) ) ;
#773 = CARTESIAN_POINT ( 'NONE',  ( 1.499999999999996669, 1.600000000000000089, -6.350000000000003197 ) ) ;
#774 = DIRECTION ( 'NONE',  ( -0.000000000000000000, 1.000000000000000000, 9.782275240470718273E-17 ) ) ;
#775 = EDGE_CURVE ( 'NONE', #965, #927, #616, .T. ) ;
#776 = EDGE_LOOP ( 'NONE', ( #1017 ) ) ;
#777 = FACE_BOUND ( 'NONE', #1086, .T. ) ;
#778 = CARTESIAN_POINT ( 'NONE',  ( -6.349999999999999645, 3.500000000000000000, -2.650000000000001243 ) ) ;
#779 = CARTESIAN_POINT ( 'NONE',  ( 3.700000000000000622, -0.1499999999999992728, 5.849999999999999645 ) ) ;
#780 = CARTESIAN_POINT ( 'NONE',  ( 4.408728476930471151E-16, -3.501000000000000334, 1.849999999999997424 ) ) ;
#781 = FACE_OUTER_BOUND ( 'NONE', #1051, .T. ) ;
#782 = EDGE_CURVE ( 'NONE', #833, #771, #1055, .T. ) ;
#783 = CIRCLE ( 'NONE', #740, 2.850000000000000977 ) ;
#784 = LINE ( 'NONE', #345, #463 ) ;
#785 = ORIENTED_EDGE ( 'NONE', *, *, #464, .T. ) ;
#786 = CARTESIAN_POINT ( 'NONE',  ( -4.499999999999998224, 1.600000000000000089, -6.350000000000002309 ) ) ;
#787 = FACE_BOUND ( 'NONE', #220, .T. ) ;
#788 = CYLINDRICAL_SURFACE ( 'NONE', #162, 0.8000000000000003775 ) ;
#789 = DIRECTION ( 'NONE',  ( 0.000000000000000000, 0.000000000000000000, 1.000000000000000000 ) ) ;
#790 = EDGE_LOOP ( 'NONE', ( #83 ) ) ;
#791 = ADVANCED_FACE ( 'NONE', ( #545, #456 ), #808, .F. ) ;
#792 = APPROVAL_DATE_TIME ( #348, #114 ) ;
#793 = CARTESIAN_POINT ( 'NONE',  ( -4.500000000000003553, 1.600000000000000089, 5.349999999999996980 ) ) ;
#794 = FACE_OUTER_BOUND ( 'NONE', #128, .T. ) ;
#795 = ORIENTED_EDGE ( 'NONE', *, *, #48, .F. ) ;
#796 = CIRCLE ( 'NONE', #202, 3.500000000000000444 ) ;
#797 = FACE_BOUND ( 'NONE', #819, .T. ) ;
#798 = FACE_OUTER_BOUND ( 'NONE', #263, .T. ) ;
#799 = PLANE ( 'NONE',  #705 ) ;
#800 = EDGE_LOOP ( 'NONE', ( #1022, #611, #622, #940 ) ) ;
#801 = AXIS2_PLACEMENT_3D ( 'NONE', #926, #52, #391 ) ;
#802 = EDGE_CURVE ( 'NONE', #407, #407, #644, .T. ) ;
#803 = CARTESIAN_POINT ( 'NONE',  ( 4.500000000000001776, 1.600000000000000089, -2.650000000000001243 ) ) ;
#804 = APPLICATION_PROTOCOL_DEFINITION ( 'international standard', 'config_control_design', 1994, #242 ) ;
#805 = PLANE ( 'NONE',  #845 ) ;
#806 = ORIENTED_EDGE ( 'NONE', *, *, #143, .F. ) ;
#807 = CARTESIAN_POINT ( 'NONE',  ( -1.499999999999997558, 1.600000000000000089, -2.650000000000001243 ) ) ;
#808 = CYLINDRICAL_SURFACE ( 'NONE', #481, 0.8000000000000012657 ) ;
#809 = EDGE_LOOP ( 'NONE', ( #308 ) ) ;
#810 = ADVANCED_FACE ( 'NONE', ( #818, #230 ), #842, .F. ) ;
#811 = CIRCLE ( 'NONE', #336, 0.8000000000000003775 ) ;
#812 = LINE ( 'NONE', #548, #451 ) ;
#813 = DIRECTION ( 'NONE',  ( -0.000000000000000000, 1.000000000000000000, 0.000000000000000000 ) ) ;
#814 = DIRECTION ( 'NONE',  ( 0.000000000000000000, 0.000000000000000000, 1.000000000000000000 ) ) ;
#815 = VECTOR ( 'NONE', #439, 1000.000000000000000 ) ;
#816 = ADVANCED_FACE ( 'NONE', ( #639, #1067, #55, #918 ), #490, .F. ) ;
#817 = CIRCLE ( 'NONE', #961, 3.400000000000000355 ) ;
#818 = FACE_OUTER_BOUND ( 'NONE', #1002, .T. ) ;
#819 = EDGE_LOOP ( 'NONE', ( #355 ) ) ;
#820 = DIRECTION ( 'NONE',  ( -0.000000000000000000, 1.000000000000000000, 9.782275240470718273E-17 ) ) ;
#821 = CC_DESIGN_SECURITY_CLASSIFICATION ( #377, ( #59 ) ) ;
#822 = ORIENTED_EDGE ( 'NONE', *, *, #143, .T. ) ;
#823 = DIRECTION ( 'NONE',  ( 0.000000000000000000, 1.000000000000000000, -0.000000000000000000 ) ) ;
#824 = CIRCLE ( 'NONE', #380, 1.500000000000000444 ) ;
#825 = DIRECTION ( 'NONE',  ( -0.000000000000000000, 1.000000000000000000, -0.000000000000000000 ) ) ;
#826 = EDGE_CURVE ( 'NONE', #960, #208, #1008, .T. ) ;
#827 = MANIFOLD_SOLID_BREP ( 'Revolve1', #272 ) ;
#828 = CARTESIAN_POINT ( 'NONE',  ( -4.499999999999998224, 1.600000000000000089, -6.350000000000002309 ) ) ;
#829 = ORIENTED_EDGE ( 'NONE', *, *, #250, .T. ) ;
#830 = CARTESIAN_POINT ( 'NONE',  ( 0.000000000000000000, 1.600000000000000089, 0.000000000000000000 ) ) ;
#831 =( BOUNDED_CURVE ( )  B_SPLINE_CURVE ( 3, ( #714, #980, #986, #636 ),
 .UNSPECIFIED., .F., .T. ) 
 B_SPLINE_CURVE_WITH_KNOTS ( ( 4, 4 ),
 ( 4.712388980384689674, 7.853981633974482790 ),
 .UNSPECIFIED. ) 
 CURVE ( )  GEOMETRIC_REPRESENTATION_ITEM ( )  RATIONAL_B_SPLINE_CURVE ( ( 1.000000000000000000, 0.3333333333333333703, 0.3333333333333333703, 1.000000000000000000 ) ) 
 REPRESENTATION_ITEM ( '' )  );
#832 = AXIS2_PLACEMENT_3D ( 'NONE', #772, #1033, #956 ) ;
#833 = VERTEX_POINT ( 'NONE', #908 ) ;
#834 = CARTESIAN_POINT ( 'NONE',  ( -4.499999999999998224, 0.000000000000000000, -6.350000000000002309 ) ) ;
#835 = EDGE_CURVE ( 'NONE', #729, #833, #342, .T. ) ;
#836 = APPROVAL_ROLE ( '' ) ;
#837 = VERTEX_POINT ( 'NONE', #700 ) ;
#838 = CARTESIAN_POINT ( 'NONE',  ( 5.300000000000001599, -0.1499999999999992728, 2.649999999999997247 ) ) ;
#839 = ORIENTED_EDGE ( 'NONE', *, *, #334, .T. ) ;
#840 = AXIS2_PLACEMENT_3D ( 'NONE', #975, #301, #296 ) ;
#841 = CARTESIAN_POINT ( 'NONE',  ( 0.000000000000000000, 2.000000000000000000, 1.849999999999997424 ) ) ;
#842 = CYLINDRICAL_SURFACE ( 'NONE', #357, 0.7999999999999999334 ) ;
#843 = EDGE_LOOP ( 'NONE', ( #1032, #402 ) ) ;
#844 = VERTEX_POINT ( 'NONE', #579 ) ;
#845 = AXIS2_PLACEMENT_3D ( 'NONE', #892, #112, #41 ) ;
#846 = VECTOR ( 'NONE', #302, 1000.000000000000000 ) ;
#847 = VERTEX_POINT ( 'NONE', #786 ) ;
#848 = CARTESIAN_POINT ( 'NONE',  ( 4.499999999999996447, 1.600000000000000089, 5.350000000000002309 ) ) ;
#849 = COORDINATED_UNIVERSAL_TIME_OFFSET ( 6, 0, .BEHIND. ) ;
#850 = ORIENTED_EDGE ( 'NONE', *, *, #48, .T. ) ;
#851 = CC_DESIGN_DATE_AND_TIME_ASSIGNMENT ( #315, #577, ( #531 ) ) ;
#852 = ORIENTED_EDGE ( 'NONE', *, *, #826, .T. ) ;
#853 = CARTESIAN_POINT ( 'NONE',  ( -3.699999999999998845, -1.750000000000001776, 4.249999999999998224 ) ) ;
#854 = FACE_BOUND ( 'NONE', #571, .T. ) ;
#855 = AXIS2_PLACEMENT_3D ( 'NONE', #73, #411, #938 ) ;
#856 = ORIENTED_EDGE ( 'NONE', *, *, #1072, .T. ) ;
#857 = EDGE_CURVE ( 'NONE', #63, #153, #693, .T. ) ;
#858 = EDGE_LOOP ( 'NONE', ( #753 ) ) ;
#859 = DIRECTION ( 'NONE',  ( -1.000000000000000000, -0.000000000000000000, -0.000000000000000000 ) ) ;
#860 = FACE_OUTER_BOUND ( 'NONE', #919, .T. ) ;
#861 = ORIENTED_EDGE ( 'NONE', *, *, #499, .T. ) ;
#862 = FACE_OUTER_BOUND ( 'NONE', #708, .T. ) ;
#863 = FACE_BOUND ( 'NONE', #177, .T. ) ;
#864 = EDGE_CURVE ( 'NONE', #252, #837, #1021, .T. ) ;
#865 = DESIGN_CONTEXT ( 'detailed design', #614, 'design' ) ;
#866 = ORIENTED_EDGE ( 'NONE', *, *, #1052, .T. ) ;
#867 = FACE_OUTER_BOUND ( 'NONE', #1057, .T. ) ;
#868 = DIRECTION ( 'NONE',  ( -0.000000000000000000, -1.000000000000000000, -0.000000000000000000 ) ) ;
#869 = FACE_OUTER_BOUND ( 'NONE', #858, .T. ) ;
#870 =( BOUNDED_CURVE ( )  B_SPLINE_CURVE ( 3, ( #1087, #660, #172, #732 ),
 .UNSPECIFIED., .F., .F. ) 
 B_SPLINE_CURVE_WITH_KNOTS ( ( 4, 4 ),
 ( 4.712388980384689674, 7.853981633974482790 ),
 .UNSPECIFIED. ) 
 CURVE ( )  GEOMETRIC_REPRESENTATION_ITEM ( )  RATIONAL_B_SPLINE_CURVE ( ( 1.000000000000000000, 0.3333333333333333703, 0.3333333333333333703, 1.000000000000000000 ) ) 
 REPRESENTATION_ITEM ( '' )  );
#871 = EDGE_CURVE ( 'NONE', #397, #397, #118, .T. ) ;
#872 = ORIENTED_EDGE ( 'NONE', *, *, #802, .F. ) ;
#873 = DIRECTION ( 'NONE',  ( -0.000000000000000000, -0.000000000000000000, 1.000000000000000000 ) ) ;
#874 = AXIS2_PLACEMENT_3D ( 'NONE', #621, #537, #176 ) ;
#875 = LINE ( 'NONE', #518, #815 ) ;
#876 = FACE_OUTER_BOUND ( 'NONE', #924, .T. ) ;
#877 = AXIS2_PLACEMENT_3D ( 'NONE', #830, #1076, #999 ) ;
#878 = CARTESIAN_POINT ( 'NONE',  ( 0.000000000000000000, -3.399999999999999023, 1.849999999999996758 ) ) ;
#879 = ORIENTED_EDGE ( 'NONE', *, *, #290, .T. ) ;
#880 = DIRECTION ( 'NONE',  ( 0.000000000000000000, 1.000000000000000000, 0.000000000000000000 ) ) ;
#881 = DIRECTION ( 'NONE',  ( 0.000000000000000000, 0.000000000000000000, 1.000000000000000000 ) ) ;
#882 = CARTESIAN_POINT ( 'NONE',  ( -4.500000000000003553, 1.600000000000000089, 5.349999999999996980 ) ) ;
#883 = DIRECTION ( 'NONE',  ( -2.023844055306271131E-15, 0.000000000000000000, 1.000000000000000000 ) ) ;
#884 = LINE ( 'NONE', #350, #97 ) ;
#885 = ORIENTED_EDGE ( 'NONE', *, *, #968, .T. ) ;
#886 = LINE ( 'NONE', #971, #897 ) ;
#887 = DIRECTION ( 'NONE',  ( -0.000000000000000000, 1.000000000000000000, 9.782275240470718273E-17 ) ) ;
#888 = DIRECTION ( 'NONE',  ( 0.000000000000000000, 0.000000000000000000, 1.000000000000000000 ) ) ;
#889 = EDGE_CURVE ( 'NONE', #35, #1037, #870, .T. ) ;
#890 = ORIENTED_EDGE ( 'NONE', *, *, #227, .T. ) ;
#891 = DIRECTION ( 'NONE',  ( 0.000000000000000000, -1.000000000000000000, 0.000000000000000000 ) ) ;
#892 = CARTESIAN_POINT ( 'NONE',  ( 0.000000000000000000, 2.100000000000000089, -1.550000000000002709 ) ) ;
#893 = ORIENTED_EDGE ( 'NONE', *, *, #427, .T. ) ;
#894 = VECTOR ( 'NONE', #725, 1000.000000000000000 ) ;
#895 = DIRECTION ( 'NONE',  ( 0.000000000000000000, 0.000000000000000000, 1.000000000000000000 ) ) ;
#896 = EDGE_CURVE ( 'NONE', #757, #757, #151, .T. ) ;
#897 = VECTOR ( 'NONE', #694, 1000.000000000000000 ) ;
#898 = ORIENTED_EDGE ( 'NONE', *, *, #988, .F. ) ;
#899 = DIRECTION ( 'NONE',  ( 0.000000000000000000, -1.521687259628777522E-16, 1.000000000000000000 ) ) ;
#900 = PRODUCT ( 'Repeat Screw Switch', 'Repeat Screw Switch', '', ( #626 ) ) ;
#901 = CARTESIAN_POINT ( 'NONE',  ( 5.300000000000001599, -3.350000000000002309, 5.849999999999999645 ) ) ;
#902 = EDGE_CURVE ( 'NONE', #632, #558, #812, .T. ) ;
#903 = DIRECTION ( 'NONE',  ( 0.000000000000000000, 0.000000000000000000, -1.000000000000000000 ) ) ;
#904 = CIRCLE ( 'NONE', #979, 3.499999999999999556 ) ;
#905 = EDGE_LOOP ( 'NONE', ( #270 ) ) ;
#906 = TOROIDAL_SURFACE ( 'NONE', #855, 3.400000000000000355, 0.1000000000000000472 ) ;
#907 = FACE_OUTER_BOUND ( 'NONE', #790, .T. ) ;
#908 = CARTESIAN_POINT ( 'NONE',  ( 4.500000000000003553, 0.000000000000000000, -6.349999999999997868 ) ) ;
#909 = EDGE_LOOP ( 'NONE', ( #405, #635, #659, #417 ) ) ;
#910 = CARTESIAN_POINT ( 'NONE',  ( -4.500000000000000000, -3.500000000000000000, 4.250000000000000000 ) ) ;
#911 = EDGE_CURVE ( 'NONE', #837, #252, #543, .T. ) ;
#912 = DIRECTION ( 'NONE',  ( -0.000000000000000000, 1.000000000000000000, -0.000000000000000000 ) ) ;
#913 = COORDINATED_UNIVERSAL_TIME_OFFSET ( 6, 0, .BEHIND. ) ;
#914 = ORIENTED_EDGE ( 'NONE', *, *, #1013, .T. ) ;
#915 = CIRCLE ( 'NONE', #311, 1.475000000000000533 ) ;
#916 = ADVANCED_FACE ( 'NONE', ( #465, #987 ), #458, .T. ) ;
#917 = CARTESIAN_POINT ( 'NONE',  ( -4.499999999999998224, 0.000000000000000000, -6.350000000000002309 ) ) ;
#918 = FACE_OUTER_BOUND ( 'NONE', #653, .T. ) ;
#919 = EDGE_LOOP ( 'NONE', ( #511 ) ) ;
#920 = ADVANCED_FACE ( 'NONE', ( #217 ), #637, .F. ) ;
#921 = VECTOR ( 'NONE', #859, 1000.000000000000000 ) ;
#922 = EDGE_LOOP ( 'NONE', ( #856 ) ) ;
#923 = APPROVAL_DATE_TIME ( #401, #211 ) ;
#924 = EDGE_LOOP ( 'NONE', ( #316 ) ) ;
#925 = CARTESIAN_POINT ( 'NONE',  ( 0.000000000000000000, -3.099999999999998312, 3.349999999999996092 ) ) ;
#926 = CARTESIAN_POINT ( 'NONE',  ( -4.499999999999998224, 1.600000000000000089, -6.350000000000002309 ) ) ;
#927 = VERTEX_POINT ( 'NONE', #485 ) ;
#928 = AXIS2_PLACEMENT_3D ( 'NONE', #209, #823, #555 ) ;
#929 = DATE_AND_TIME ( #68, #437 ) ;
#930 = ORIENTED_EDGE ( 'NONE', *, *, #534, .F. ) ;
#931 = ORIENTED_EDGE ( 'NONE', *, *, #889, .F. ) ;
#932 = AXIS2_PLACEMENT_3D ( 'NONE', #116, #452, #32 ) ;
#933 = EDGE_LOOP ( 'NONE', ( #678 ) ) ;
#934 = EDGE_CURVE ( 'NONE', #837, #252, #655, .T. ) ;
#935 = VERTEX_POINT ( 'NONE', #575 ) ;
#936 = CARTESIAN_POINT ( 'NONE',  ( 0.000000000000000000, 1.599999999999999867, 5.249999999999997335 ) ) ;
#937 = ADVANCED_FACE ( 'NONE', ( #258, #777, #679, #955 ), #523, .F. ) ;
#938 = DIRECTION ( 'NONE',  ( 0.000000000000000000, -9.782275240470718273E-17, 1.000000000000000000 ) ) ;
#939 = LINE ( 'NONE', #671, #949 ) ;
#940 = ORIENTED_EDGE ( 'NONE', *, *, #902, .T. ) ;
#941 = ORIENTED_EDGE ( 'NONE', *, *, #527, .F. ) ;
#942 = EDGE_CURVE ( 'NONE', #758, #691, #192, .T. ) ;
#943 = CARTESIAN_POINT ( 'NONE',  ( 0.000000000000000000, 2.100000000000000089, 1.849999999999997202 ) ) ;
#944 = DIRECTION ( 'NONE',  ( 0.000000000000000000, -0.000000000000000000, 1.000000000000000000 ) ) ;
#945 = VECTOR ( 'NONE', #969, 1000.000000000000000 ) ;
#946 = CARTESIAN_POINT ( 'NONE',  ( 3.000000000000000000, 0.000000000000000000, -4.300000000000004263 ) ) ;
#947 = EDGE_LOOP ( 'NONE', ( #156 ) ) ;
#948 = DIRECTION ( 'NONE',  ( 1.172110456741085581E-16, 0.000000000000000000, 1.000000000000000000 ) ) ;
#949 = VECTOR ( 'NONE', #868, 1000.000000000000000 ) ;
#950 = EDGE_CURVE ( 'NONE', #568, #568, #593, .T. ) ;
#951 = FACE_BOUND ( 'NONE', #947, .T. ) ;
#952 = LINE ( 'NONE', #793, #973 ) ;
#953 = PLANE ( 'NONE',  #874 ) ;
#954 = EDGE_LOOP ( 'NONE', ( #300 ) ) ;
#955 = FACE_BOUND ( 'NONE', #367, .T. ) ;
#956 = DIRECTION ( 'NONE',  ( 1.000000000000000000, 0.000000000000000000, 0.000000000000000000 ) ) ;
#957 = DIRECTION ( 'NONE',  ( 0.000000000000000000, 0.000000000000000000, 1.000000000000000000 ) ) ;
#958 = PLANE ( 'NONE',  #6 ) ;
#959 = AXIS2_PLACEMENT_3D ( 'NONE', #519, #774, #268 ) ;
#960 = VERTEX_POINT ( 'NONE', #121 ) ;
#961 = AXIS2_PLACEMENT_3D ( 'NONE', #282, #288, #277 ) ;
#962 = DIRECTION ( 'NONE',  ( 0.000000000000000000, -1.000000000000000000, -0.000000000000000000 ) ) ;
#963 = CARTESIAN_POINT ( 'NONE',  ( -4.500000000000000000, 0.000000000000000000, -2.650000000000003020 ) ) ;
#964 = DIRECTION ( 'NONE',  ( 9.637352644315597708E-17, 0.000000000000000000, 1.000000000000000000 ) ) ;
#965 = VERTEX_POINT ( 'NONE', #287 ) ;
#966 = FACE_OUTER_BOUND ( 'NONE', #415, .T. ) ;
#967 = CARTESIAN_POINT ( 'NONE',  ( 0.000000000000000000, 0.1217391304347832520, 1.849999999999996980 ) ) ;
#968 = EDGE_CURVE ( 'NONE', #35, #1037, #704, .T. ) ;
#969 = DIRECTION ( 'NONE',  ( 0.000000000000000000, 1.000000000000000000, 0.000000000000000000 ) ) ;
#970 = ORIENTED_EDGE ( 'NONE', *, *, #1027, .F. ) ;
#971 = CARTESIAN_POINT ( 'NONE',  ( 0.000000000000000000, 1.600000000000000089, -2.650000000000001243 ) ) ;
#972 = CARTESIAN_POINT ( 'NONE',  ( 0.000000000000000000, 1.599999999999999867, 1.849999999999997202 ) ) ;
#973 = VECTOR ( 'NONE', #189, 1000.000000000000000 ) ;
#974 = VERTEX_POINT ( 'NONE', #44 ) ;
#975 = CARTESIAN_POINT ( 'NONE',  ( 0.000000000000000000, 3.250000000000000888, 1.849999999999997424 ) ) ;
#976 = DIRECTION ( 'NONE',  ( -6.484947573745073600E-16, 0.000000000000000000, 1.000000000000000000 ) ) ;
#977 = APPLICATION_PROTOCOL_DEFINITION ( 'international standard', 'config_control_design', 1994, #614 ) ;
#978 = ORIENTED_EDGE ( 'NONE', *, *, #1080, .F. ) ;
#979 = AXIS2_PLACEMENT_3D ( 'NONE', #354, #718, #119 ) ;
#980 = CARTESIAN_POINT ( 'NONE',  ( -5.299999999999998934, -0.1500000000000021316, 2.649999999999998579 ) ) ;
#981 = CC_DESIGN_APPROVAL ( #114, ( #377 ) ) ;
#982 = CARTESIAN_POINT ( 'NONE',  ( -3.699377491420358291E-16, 0.000000000000000000, -2.650000000000002132 ) ) ;
#983 = DIRECTION ( 'NONE',  ( 0.000000000000000000, 1.000000000000000000, 0.000000000000000000 ) ) ;
#984 = VECTOR ( 'NONE', #1060, 1000.000000000000000 ) ;
#985 = ORIENTED_EDGE ( 'NONE', *, *, #234, .F. ) ;
#986 = CARTESIAN_POINT ( 'NONE',  ( -3.699999999999999289, -0.1500000000000018818, 2.649999999999998579 ) ) ;
#987 = FACE_OUTER_BOUND ( 'NONE', #435, .T. ) ;
#988 = EDGE_CURVE ( 'NONE', #1078, #758, #305, .T. ) ;
#989 = EDGE_LOOP ( 'NONE', ( #1083 ) ) ;
#990 = DIRECTION ( 'NONE',  ( 0.000000000000000000, 0.000000000000000000, 1.000000000000000000 ) ) ;
#991 = ORIENTED_EDGE ( 'NONE', *, *, #368, .F. ) ;
#992 = FACE_OUTER_BOUND ( 'NONE', #158, .T. ) ;
#993 = CARTESIAN_POINT ( 'NONE',  ( -5.299999999999998934, -1.750000000000001776, 4.249999999999998224 ) ) ;
#994 = VECTOR ( 'NONE', #362, 1000.000000000000000 ) ;
#995 = LOCAL_TIME ( 15, 50, 59.00000000000000000, #849 ) ;
#996 = DIRECTION ( 'NONE',  ( -1.000000000000000000, 0.000000000000000000, 0.000000000000000000 ) ) ;
#997 = EDGE_CURVE ( 'NONE', #150, #150, #783, .T. ) ;
#998 = ORIENTED_EDGE ( 'NONE', *, *, #864, .T. ) ;
#999 = DIRECTION ( 'NONE',  ( 0.000000000000000000, -0.000000000000000000, 1.000000000000000000 ) ) ;
#1000 = EDGE_LOOP ( 'NONE', ( #493 ) ) ;
#1001 = CARTESIAN_POINT ( 'NONE',  ( 6.349999999999999645, 3.500000000000000000, -2.650000000000003020 ) ) ;
#1002 = EDGE_LOOP ( 'NONE', ( #389 ) ) ;
#1003 = VERTEX_POINT ( 'NONE', #331 ) ;
#1004 = AXIS2_PLACEMENT_3D ( 'NONE', #332, #669, #393 ) ;
#1005 = DIRECTION ( 'NONE',  ( 0.000000000000000000, -0.000000000000000000, 1.000000000000000000 ) ) ;
#1006 = EDGE_CURVE ( 'NONE', #935, #632, #720, .T. ) ;
#1007 = LINE ( 'NONE', #834, #321 ) ;
#1008 = LINE ( 'NONE', #848, #101 ) ;
#1009 = PERSON_AND_ORGANIZATION ( #299, #699 ) ;
#1010 = ORIENTED_EDGE ( 'NONE', *, *, #934, .F. ) ;
#1011 = AXIS2_PLACEMENT_3D ( 'NONE', #645, #394, #996 ) ;
#1012 = VERTEX_POINT ( 'NONE', #946 ) ;
#1013 = EDGE_CURVE ( 'NONE', #662, #320, #233, .T. ) ;
#1014 = EDGE_LOOP ( 'NONE', ( #598 ) ) ;
#1015 = VECTOR ( 'NONE', #293, 1000.000000000000000 ) ;
#1016 = SECURITY_CLASSIFICATION_LEVEL ( 'unclassified' ) ;
#1017 = ORIENTED_EDGE ( 'NONE', *, *, #569, .F. ) ;
#1018 = ORIENTED_EDGE ( 'NONE', *, *, #775, .F. ) ;
#1019 = ORIENTED_EDGE ( 'NONE', *, *, #1024, .T. ) ;
#1020 = PLANE ( 'NONE',  #184 ) ;
#1021 =( BOUNDED_CURVE ( )  B_SPLINE_CURVE ( 3, ( #281, #67, #779, #91 ),
 .UNSPECIFIED., .F., .T. ) 
 B_SPLINE_CURVE_WITH_KNOTS ( ( 4, 4 ),
 ( 4.712388980384689674, 7.853981633974482790 ),
 .UNSPECIFIED. ) 
 CURVE ( )  GEOMETRIC_REPRESENTATION_ITEM ( )  RATIONAL_B_SPLINE_CURVE ( ( 1.000000000000000000, 0.3333333333333333703, 0.3333333333333333703, 1.000000000000000000 ) ) 
 REPRESENTATION_ITEM ( '' )  );
#1022 = ORIENTED_EDGE ( 'NONE', *, *, #534, .T. ) ;
#1023 = CARTESIAN_POINT ( 'NONE',  ( -2.999999999999997780, 1.600000000000000089, -4.300000000000003375 ) ) ;
#1024 = EDGE_CURVE ( 'NONE', #1037, #35, #831, .T. ) ;
#1025 = PLANE ( 'NONE',  #138 ) ;
#1026 = VERTEX_POINT ( 'NONE', #403 ) ;
#1027 = EDGE_CURVE ( 'NONE', #484, #484, #340, .T. ) ;
#1028 = CARTESIAN_POINT ( 'NONE',  ( -1.499999999999997780, 1.600000000000000089, -5.350000000000003197 ) ) ;
#1029 = FACE_BOUND ( 'NONE', #776, .T. ) ;
#1030 = AXIS2_PLACEMENT_3D ( 'NONE', #1063, #633, #990 ) ;
#1031 = DIRECTION ( 'NONE',  ( 0.000000000000000000, -1.445602896647339410E-16, 1.000000000000000000 ) ) ;
#1032 = ORIENTED_EDGE ( 'NONE', *, *, #864, .F. ) ;
#1033 = DIRECTION ( 'NONE',  ( -0.000000000000000000, -0.000000000000000000, 1.000000000000000000 ) ) ;
#1034 = LINE ( 'NONE', #602, #650 ) ;
#1035 = LINE ( 'NONE', #676, #93 ) ;
#1036 = CARTESIAN_POINT ( 'NONE',  ( -4.500000000000000000, -3.500000000000000000, 3.450000000000000178 ) ) ;
#1037 = VERTEX_POINT ( 'NONE', #136 ) ;
#1038 = CARTESIAN_POINT ( 'NONE',  ( 3.699999999999999734, -1.750000000000000666, 4.249999999999998224 ) ) ;
#1039 = DIRECTION ( 'NONE',  ( 0.000000000000000000, 9.766049369892541336E-17, -1.000000000000000000 ) ) ;
#1040 = CARTESIAN_POINT ( 'NONE',  ( 1.499999999999996891, 1.600000000000000089, -6.350000000000003197 ) ) ;
#1041 = ORIENTED_EDGE ( 'NONE', *, *, #765, .T. ) ;
#1042 = EDGE_CURVE ( 'NONE', #844, #844, #540, .T. ) ;
#1043 = DIRECTION ( 'NONE',  ( -1.000000000000000000, 0.000000000000000000, 1.365923996832131116E-16 ) ) ;
#1044 = CARTESIAN_POINT ( 'NONE',  ( -4.500000000000000000, -3.500000000000000000, 4.250000000000000000 ) ) ;
#1045 =( GEOMETRIC_REPRESENTATION_CONTEXT ( 3 ) GLOBAL_UNCERTAINTY_ASSIGNED_CONTEXT ( ( #159 ) ) GLOBAL_UNIT_ASSIGNED_CONTEXT ( ( #8, #27, #717 ) ) REPRESENTATION_CONTEXT ( 'NONE', 'WORKASPACE' ) );
#1046 = LOCAL_TIME ( 15, 50, 59.00000000000000000, #231 ) ;
#1047 = EDGE_LOOP ( 'NONE', ( #225, #879, #351, #76 ) ) ;
#1048 = DIRECTION ( 'NONE',  ( -0.000000000000000000, 1.000000000000000000, -0.000000000000000000 ) ) ;
#1049 = CARTESIAN_POINT ( 'NONE',  ( -4.500000000000000000, 1.600000000000000089, -2.650000000000001243 ) ) ;
#1050 = LINE ( 'NONE', #461, #1015 ) ;
#1051 = EDGE_LOOP ( 'NONE', ( #667 ) ) ;
#1052 = EDGE_CURVE ( 'NONE', #433, #433, #58, .T. ) ;
#1053 = FACE_OUTER_BOUND ( 'NONE', #142, .T. ) ;
#1054 = PERSON_AND_ORGANIZATION ( #299, #699 ) ;
#1055 = LINE ( 'NONE', #289, #994 ) ;
#1056 = VECTOR ( 'NONE', #426, 1000.000000000000000 ) ;
#1057 = EDGE_LOOP ( 'NONE', ( #29, #239, #378, #346 ) ) ;
#1058 = DIRECTION ( 'NONE',  ( -0.000000000000000000, 1.000000000000000000, 9.782275240470718273E-17 ) ) ;
#1059 = CYLINDRICAL_SURFACE ( 'NONE', #1079, 0.7499999999999997780 ) ;
#1060 = DIRECTION ( 'NONE',  ( -1.000000000000000000, 0.000000000000000000, 1.365923996832131116E-16 ) ) ;
#1061 = EDGE_LOOP ( 'NONE', ( #312 ) ) ;
#1062 = AXIS2_PLACEMENT_3D ( 'NONE', #215, #47, #552 ) ;
#1063 = CARTESIAN_POINT ( 'NONE',  ( 4.408728476930471151E-16, -3.500000000000000000, 1.849999999999997424 ) ) ;
#1064 = LOCAL_TIME ( 15, 50, 59.00000000000000000, #62 ) ;
#1065 = DIRECTION ( 'NONE',  ( -1.365923996832131116E-16, -3.385000605292525869E-32, -1.000000000000000000 ) ) ;
#1066 = DIRECTION ( 'NONE',  ( 0.000000000000000000, -1.000000000000000000, 0.000000000000000000 ) ) ;
#1067 = FACE_BOUND ( 'NONE', #905, .T. ) ;
#1068 = EDGE_LOOP ( 'NONE', ( #147 ) ) ;
#1069 = ORIENTED_EDGE ( 'NONE', *, *, #18, .T. ) ;
#1070 = CARTESIAN_POINT ( 'NONE',  ( 1.499999999999997113, 1.600000000000000089, -2.650000000000001243 ) ) ;
#1071 = CARTESIAN_POINT ( 'NONE',  ( -5.299999999999998934, -3.350000000000002309, 2.649999999999998579 ) ) ;
#1072 = EDGE_CURVE ( 'NONE', #196, #196, #677, .T. ) ;
#1073 = CARTESIAN_POINT ( 'NONE',  ( -6.349999999999999645, -19.06566734836640720, -2.650000000000001243 ) ) ;
#1074 = PERSON_AND_ORGANIZATION ( #299, #699 ) ;
#1075 = ORIENTED_EDGE ( 'NONE', *, *, #782, .F. ) ;
#1076 = DIRECTION ( 'NONE',  ( -0.000000000000000000, 1.000000000000000000, 0.000000000000000000 ) ) ;
#1077 = DIRECTION ( 'NONE',  ( -0.000000000000000000, -1.000000000000000000, -0.000000000000000000 ) ) ;
#1078 = VERTEX_POINT ( 'NONE', #384 ) ;
#1079 = AXIS2_PLACEMENT_3D ( 'NONE', #137, #825, #385 ) ;
#1080 = EDGE_CURVE ( 'NONE', #974, #320, #730, .T. ) ;
#1081 = ORIENTED_EDGE ( 'NONE', *, *, #1024, .F. ) ;
#1082 = PERSON_AND_ORGANIZATION_ROLE ( 'creator' ) ;
#1083 = ORIENTED_EDGE ( 'NONE', *, *, #464, .F. ) ;
#1084 = ADVANCED_FACE ( 'NONE', ( #992, #559 ), #141, .T. ) ;
#1085 = CARTESIAN_POINT ( 'NONE',  ( 0.000000000000000000, -3.399999999999999023, 3.049999999999996270 ) ) ;
#1086 = EDGE_LOOP ( 'NONE', ( #866 ) ) ;
#1087 = CARTESIAN_POINT ( 'NONE',  ( -3.699999999999998845, -1.750000000000001776, 4.249999999999998224 ) ) ;
#1088 = ORIENTED_EDGE ( 'NONE', *, *, #871, .T. ) ;
#1089 = AXIS2_PLACEMENT_3D ( 'NONE', #188, #1065, #1043 ) ;
#1090 = ORIENTED_EDGE ( 'NONE', *, *, #934, .T. ) ;
#1091 = CARTESIAN_POINT ( 'NONE',  ( 1.499999999999997335, 1.600000000000000089, -1.650000000000002576 ) ) ;
#1092 = FACE_OUTER_BOUND ( 'NONE', #105, .T. ) ;
#1093 = EDGE_CURVE ( 'NONE', #662, #771, #160, .T. ) ;
#1094 = PERSON_AND_ORGANIZATION ( #299, #699 ) ;
#1095 = EDGE_LOOP ( 'NONE', ( #806 ) ) ;
#1096 = CARTESIAN_POINT ( 'NONE',  ( 3.000000000000000000, 1.600000000000000089, -4.300000000000004263 ) ) ;
#1097 = ORIENTED_EDGE ( 'NONE', *, *, #371, .T. ) ;
#1098 = ORIENTED_EDGE ( 'NONE', *, *, #911, .T. ) ;
#1099 = DIRECTION ( 'NONE',  ( 0.000000000000000000, 0.000000000000000000, 1.000000000000000000 ) ) ;
ENDSEC;
END-ISO-10303-21;
